<svg width="215" height="45" viewBox="0 0 215 45" fill="none" xmlns="http://www.w3.org/2000/svg">
<path d="M17.36 35.6C17.3333 36.0533 17.1467 36.5733 16.8 37.16C16.48 37.7733 16.1333 38.2133 15.76 38.48C15.76 38.0267 15.6533 37.48 15.44 36.84C15.2267 36.2 14.96 35.72 14.64 35.4C14.16 35.8 13.76 36.4 13.44 37.2C13.1467 38 12.9867 38.72 12.96 39.36C12.7733 39.0133 12.64 38.6 12.56 38.12C12.48 37.64 12.4667 37.1467 12.52 36.64C12.2267 37.3333 11.8667 37.88 11.44 38.28C11.7333 37.8267 11.92 37.2533 12 36.56C12.1067 35.8933 12.0933 35.2933 11.96 34.76C11.8533 35.1867 11.6267 35.6133 11.28 36.04C10.9333 36.4933 10.5333 36.8933 10.08 37.24C9.65333 37.6133 9.24 37.8667 8.84 38C9.13333 37.44 9.33333 36.7067 9.44 35.8C9.54667 34.8933 9.52 34.1333 9.36 33.52C8.90667 33.4933 8.36 33.6267 7.72 33.92C7.08 34.2133 6.6 34.5333 6.28 34.88C6.22667 34.4267 6.32 33.88 6.56 33.24C6.8 32.5733 7.06667 32.0533 7.36 31.68C6.66667 31.7867 5.90667 32.0667 5.08 32.52C4.28 32.9467 3.69333 33.4667 3.32 34.08C3.64 33.44 4.13333 32.8133 4.8 32.2C5.49333 31.56 6.18667 31.1733 6.88 31.04C6.21333 30.8 5.38667 30.76 4.4 30.92C3.44 31.0533 2.66667 31.3067 2.08 31.68C2.37333 31.0667 2.88 30.44 3.6 29.8C4.34667 29.1333 5.06667 28.72 5.76 28.56C5.38667 28.6133 4.92 28.5733 4.36 28.44C3.8 28.3067 3.38667 28.12 3.12 27.88C3.46667 27.8 3.86667 27.6 4.32 27.28C4.8 26.96 5.13333 26.64 5.32 26.32C4.70667 26.08 3.96 25.9467 3.08 25.92C2.22667 25.8667 1.49333 25.9733 0.88 26.24C1.44 25.8667 2.14667 25.6 3 25.44C3.88 25.28 4.64 25.3067 5.28 25.52C4.85333 25.0933 4.22667 24.7333 3.4 24.44C2.57333 24.1467 1.85333 24.04 1.24 24.12C1.61333 23.7733 2.13333 23.4533 2.8 23.16C3.44 22.84 4.05333 22.64 4.64 22.56C4.18667 22.5333 3.72 22.4267 3.24 22.24C2.78667 22.0267 2.41333 21.8 2.12 21.56C2.57333 21.64 3.12 21.5733 3.76 21.36C4.4 21.1467 4.89333 20.8933 5.24 20.6C4.86667 20.5733 4.42667 20.4 3.92 20.08C3.41333 19.76 3.06667 19.4533 2.88 19.16C3.22667 19.1067 3.66667 18.96 4.2 18.72C4.76 18.4533 5.13333 18.16 5.32 17.84C5.05333 17.4667 4.61333 17.1467 4 16.88C3.38667 16.5867 2.84 16.4133 2.36 16.36C2.65333 16.2 3 16.0667 3.4 15.96C3.82667 15.8533 4.24 15.8 4.64 15.8C4.02667 15.64 3.42667 15.3733 2.84 15C2.22667 14.6267 1.76 14.2267 1.44 13.8C2.05333 14.1467 2.81333 14.4133 3.72 14.6C4.62667 14.76 5.42667 14.7467 6.12 14.56C5.90667 14.1333 5.56 13.6667 5.08 13.16C4.62667 12.6533 4.18667 12.2933 3.76 12.08C4.18667 11.9733 4.72 11.9733 5.36 12.08C6 12.1867 6.52 12.3733 6.92 12.64C6.62667 12.4 6.21333 12.0267 5.68 11.52C5.17333 10.9867 4.64 10.4133 4.08 9.8C3.54667 9.16 3.08 8.56 2.68 8C2.28 7.44 2.04 7.02667 1.96 6.76C2.12 7.02667 2.48 7.4 3.04 7.88C3.62667 8.36 4.28 8.86666 5 9.4C5.72 9.90667 6.38667 10.3467 7 10.72C7.64 11.0933 8.10667 11.2933 8.4 11.32C8.50667 10.8667 8.46667 10.32 8.28 9.68C8.12 9.01333 7.92 8.49333 7.68 8.12C8.13333 8.14667 8.62667 8.37333 9.16 8.8C9.72 9.2 10.1333 9.58667 10.4 9.96C10.2667 9.8 10.12 9.49333 9.96 9.04C9.8 8.56 9.64 8.02667 9.48 7.44C9.34667 6.85333 9.24 6.32 9.16 5.84C9.10667 5.33333 9.09333 4.97333 9.12 4.76C9.17333 4.97333 9.32 5.30666 9.56 5.76C9.8 6.18667 10.08 6.65333 10.4 7.16C10.72 7.64 11.0267 8.08 11.32 8.48C11.64 8.88 11.88 9.14667 12.04 9.28C12.12 8.8 12.1067 8.24 12 7.6C11.92 6.96 11.7333 6.45333 11.44 6.08C12.1067 6.66667 12.5333 7.44 12.72 8.4C12.72 7.89333 12.8 7.34667 12.96 6.76C13.12 6.14667 13.32 5.66667 13.56 5.32C13.6133 5.85333 13.8667 6.44 14.32 7.08C14.7733 7.72 15.2133 8.2 15.64 8.52C15.9867 7.93333 16.2267 7.2 16.36 6.32C16.52 5.41333 16.52 4.64 16.36 4C16.8133 4.48 17.1333 5.17333 17.32 6.08C17.5333 6.96 17.6133 7.73333 17.56 8.4C17.88 8 18.1733 7.46667 18.44 6.8C18.7067 6.13333 18.8 5.54666 18.72 5.04C19.04 5.36 19.28 5.82667 19.44 6.44C19.6267 7.02667 19.7067 7.57333 19.68 8.08C19.7867 7.52 20.0133 6.93333 20.36 6.32C20.7067 5.68 21.08 5.2 21.48 4.88C21.32 5.44 21.32 6.12 21.48 6.92C21.6667 7.72 21.9067 8.36 22.2 8.84C22.6267 8.57333 23.0267 8.16 23.4 7.6C23.8 7.01333 24.04 6.48 24.12 6C24.3067 6.45333 24.4133 7.02667 24.44 7.72C24.4667 8.38667 24.4 8.94667 24.24 9.4C24.8 9.10666 25.3867 8.64 26 8C26.64 7.36 27.0267 6.72 27.16 6.08C27.2933 6.72 27.28 7.48 27.12 8.36C26.96 9.21333 26.72 9.92 26.4 10.48C26.6933 10.1067 27.1333 9.73333 27.72 9.36C28.3067 8.96 28.84 8.76 29.32 8.76C29.0267 9.13333 28.76 9.65333 28.52 10.32C28.28 10.96 28.2 11.5067 28.28 11.96C28.76 11.6133 29.4133 11.32 30.24 11.08C31.0667 10.8133 31.7867 10.7333 32.4 10.84C31.8667 11.16 31.3333 11.6667 30.8 12.36C30.2667 13.0267 29.9333 13.6533 29.8 14.24C30.3067 14.4267 30.9333 14.4933 31.68 14.44C32.4533 14.36 33.0533 14.16 33.48 13.84C33.16 14.2667 32.68 14.6933 32.04 15.12C31.4267 15.52 30.8533 15.7333 30.32 15.76C30.64 16.0533 31.12 16.2667 31.76 16.4C32.4 16.5067 32.9333 16.52 33.36 16.44C33.0933 16.7867 32.6667 17.1067 32.08 17.4C31.52 17.6933 31.0133 17.84 30.56 17.84C30.2933 18.1067 30.08 18.52 29.92 19.08C29.7867 19.6133 29.76 20.0667 29.84 20.44C29.5733 20.1733 29.3333 19.7867 29.12 19.28C28.9333 18.7467 28.8533 18.2933 28.88 17.92C28.56 18.4 28.2933 19.0267 28.08 19.8C27.8933 20.5733 27.8667 21.24 28 21.8C27.6533 21.3467 27.3733 20.7333 27.16 19.96C26.9733 19.16 26.96 18.48 27.12 17.92C26.8 18.32 26.5467 18.8667 26.36 19.56C26.2 20.2533 26.1867 20.84 26.32 21.32C26.0267 20.8933 25.8 20.3467 25.64 19.68C25.5067 19.0133 25.4667 18.4267 25.52 17.92C25.1733 18.2133 24.8533 18.68 24.56 19.32C24.2667 19.96 24.1067 20.5067 24.08 20.96C23.76 20.64 23.44 20.1733 23.12 19.56C22.8 18.92 22.64 18.3733 22.64 17.92C22.2933 18.5333 21.7467 19.12 21 19.68C20.2533 20.24 19.5333 20.6133 18.84 20.8C19.4533 20.4533 20.0133 19.88 20.52 19.08C21.0533 18.2533 21.3467 17.4933 21.4 16.8C21.1333 17.1467 20.7467 17.48 20.24 17.8C19.76 18.0933 19.2667 18.3333 18.76 18.52C18.44 18.6 18.1467 18.6667 17.88 18.72C17.8533 18.8533 17.84 18.9733 17.84 19.08C17.8133 18.9733 17.7867 18.8533 17.76 18.72C17.7067 18.72 17.6533 18.7333 17.6 18.76C17.5733 18.76 17.5733 18.76 17.6 18.76C17.6267 18.84 17.6667 18.9333 17.72 19.04C17.64 18.96 17.5467 18.8667 17.44 18.76C17.4133 18.7067 17.3867 18.6667 17.36 18.64C16.8267 18.7733 16.2533 18.8267 15.64 18.8C15.0267 18.7467 14.5067 18.6267 14.08 18.44C14.4533 18.7333 14.9067 19.0133 15.44 19.28C16 19.5467 16.56 19.7467 17.12 19.88C17.7067 20.0133 18.2267 20.0267 18.68 19.92C18.3333 20.2133 17.88 20.48 17.32 20.72C16.76 20.96 16.1733 21.1333 15.56 21.24C14.9733 21.3467 14.4667 21.3467 14.04 21.24C14.44 21.5333 14.9867 21.72 15.68 21.8C16.3733 21.88 16.9733 21.8267 17.48 21.64C17.0267 21.9333 16.4533 22.1067 15.76 22.16C15.0933 22.1867 14.52 22.1467 14.04 22.04C14.5733 22.44 15.2933 22.7467 16.2 22.96C17.1333 23.1467 17.9333 23.1467 18.6 22.96C18.04 23.3333 17.32 23.6267 16.44 23.84C17.08 23.92 17.6267 24.08 18.08 24.32C17.52 24.1333 16.8267 24.1067 16 24.24C15.2 24.3467 14.56 24.5733 14.08 24.92C14.5067 24.7867 15 24.7333 15.56 24.76C16.1467 24.76 16.7067 24.8133 17.24 24.92L17.28 24.76C17.3333 24.84 17.3867 24.9067 17.44 24.96C17.6267 25.0133 17.8 25.0667 17.96 25.12C18.0933 25.04 18.24 24.96 18.4 24.88C18.2933 24.96 18.1733 25.0533 18.04 25.16C18.2533 25.24 18.4533 25.32 18.64 25.4C18.4 25.3733 18.1333 25.3733 17.84 25.4C17.9733 25.5333 18.12 25.6667 18.28 25.8L18.4 25.68C18.3733 25.7333 18.3467 25.7867 18.32 25.84C18.7733 26.2133 19.2667 26.5467 19.8 26.84C20.3333 27.1067 20.8267 27.3067 21.28 27.44C20.9867 27.0133 20.5467 26.5867 19.96 26.16C19.4 25.7333 18.8667 25.5067 18.36 25.48C18.8667 25.3733 19.4533 25.3867 20.12 25.52C20.8133 25.6533 21.3733 25.88 21.8 26.2C22.2 25.7467 22.5067 25.12 22.72 24.32C22.96 23.4933 23.0667 22.7733 23.04 22.16C23.36 22.4533 23.64 22.8533 23.88 23.36C24.1467 23.8667 24.3467 24.3733 24.48 24.88C24.5333 24.1067 24.72 23.44 25.04 22.88C24.9067 23.3333 24.88 23.88 24.96 24.52C25.0667 25.16 25.2533 25.68 25.52 26.08C25.4667 25.6267 25.4933 25.1067 25.6 24.52C25.7333 23.9067 25.9467 23.44 26.24 23.12C26.1867 23.5733 26.2267 24.0933 26.36 24.68C26.52 25.24 26.72 25.7067 26.96 26.08C27.2533 25.7867 27.5067 25.3733 27.72 24.84C27.96 24.28 28.0533 23.8 28 23.4C28.24 23.6133 28.4533 23.9333 28.64 24.36C28.8533 24.7867 28.9867 25.1867 29.04 25.56C29.04 25.2133 29.0933 24.8533 29.2 24.48C29.3333 24.1067 29.4933 23.8133 29.68 23.6C29.6267 23.9733 29.6667 24.4133 29.8 24.92C29.9333 25.4 30.1067 25.7867 30.32 26.08C30.8533 26.3733 31.52 26.5867 32.32 26.72C33.1467 26.8533 33.8533 26.84 34.44 26.68C33.9333 27.0267 33.28 27.3067 32.48 27.52C31.7067 27.7067 31.0133 27.7733 30.4 27.72C30.6667 28.1467 31.0667 28.6 31.6 29.08C32.16 29.5333 32.68 29.8 33.16 29.88C32.7067 30.0667 32.12 30.1867 31.4 30.24C30.7067 30.2667 30.1333 30.1867 29.68 30C29.8133 30.4533 30.0933 30.92 30.52 31.4C30.9467 31.88 31.3733 32.2133 31.8 32.4C31.3467 32.4533 30.8 32.4 30.16 32.24C29.5467 32.0533 29.0667 31.8 28.72 31.48C28.6667 31.96 28.7467 32.5467 28.96 33.24C29.2 33.9333 29.48 34.4533 29.8 34.8C29.32 34.8267 28.7333 34.6933 28.04 34.4C27.3733 34.1067 26.8933 33.7733 26.6 33.4C26.9467 33.9067 27.2 34.56 27.36 35.36C27.5467 36.1333 27.6 36.8133 27.52 37.4C27.3867 36.8133 27.0267 36.2133 26.44 35.6C25.88 34.9867 25.32 34.5733 24.76 34.36C24.6 34.76 24.5067 35.2667 24.48 35.88C24.4533 36.4933 24.52 37 24.68 37.4C24.3067 37.1867 23.9333 36.84 23.56 36.36C23.1867 35.9067 22.9467 35.4933 22.84 35.12C23.0533 35.7333 23.16 36.4667 23.16 37.32C23.1867 38.1733 23.0667 38.8933 22.8 39.48C22.7733 38.8133 22.5867 38.0667 22.24 37.24C21.92 36.44 21.5333 35.8133 21.08 35.36C21.1333 36.0267 21.0267 36.8133 20.76 37.72C20.4933 38.6533 20.1733 39.3867 19.8 39.92C19.8533 39.2533 19.64 38.48 19.16 37.6C18.7067 36.72 18.1067 36.0533 17.36 35.6ZM17.44 14.6C17.2533 15.24 17.1733 15.9733 17.2 16.8C17.4133 16.96 17.6133 17.12 17.8 17.28C17.8533 16.9867 17.9333 16.68 18.04 16.36C17.9333 15.6667 17.7333 15.08 17.44 14.6ZM19.92 15.08C19.52 15.3467 19.1467 15.7467 18.8 16.28C18.6933 16.84 18.52 17.3467 18.28 17.8C18.3067 17.8267 18.3333 17.8667 18.36 17.92C18.7333 17.4933 19.0667 17.0267 19.36 16.52C19.6533 16.0133 19.84 15.5333 19.92 15.08ZM15.28 15.64C15.2533 15.64 15.2267 15.64 15.2 15.64C15.2 15.6133 15.2267 15.6133 15.28 15.64ZM14.2 17.48C14.5467 17.7733 15 18 15.56 18.16C16.12 18.32 16.6667 18.4133 17.2 18.44C17.0133 18.2 16.8533 17.9333 16.72 17.64C16.2667 17.5067 15.8133 17.4267 15.36 17.4C14.9333 17.3467 14.5467 17.3733 14.2 17.48ZM17.32 17.84C17.3733 18.0533 17.4267 18.2533 17.48 18.44C17.56 18.44 17.6267 18.44 17.68 18.44C17.7333 18.44 17.7467 18.44 17.72 18.44C17.72 18.28 17.72 18.1333 17.72 18C17.5867 17.92 17.4533 17.8667 17.32 17.84ZM18 18.08C17.9733 18.16 17.96 18.24 17.96 18.32C17.9867 18.24 18 18.1733 18 18.12V18.08ZM18.08 18.12C18.0267 18.2267 17.9867 18.2933 17.96 18.32C18.0133 18.2667 18.0667 18.2133 18.12 18.16L18.08 18.12ZM17.52 18.56L17.56 18.64C17.6133 18.6133 17.68 18.5733 17.76 18.52V18.48C17.68 18.5067 17.6 18.5333 17.52 18.56ZM14.28 26.92C14.76 26.9733 15.2933 26.92 15.88 26.76C16.3067 26.28 16.7733 25.8667 17.28 25.52C17.28 25.4933 17.28 25.48 17.28 25.48C16.72 25.5867 16.1733 25.7733 15.64 26.04C15.1067 26.3067 14.6533 26.6 14.28 26.92ZM17.36 25.88C17.2 26.0667 17.0533 26.2667 16.92 26.48C17.1067 26.4 17.28 26.32 17.44 26.24C17.4133 26.1333 17.3867 26.0133 17.36 25.88ZM15.96 29C16.0133 28.6533 16.2267 28.24 16.6 27.76C16.9733 27.2533 17.3067 26.9333 17.6 26.8C17.6 26.7733 17.5867 26.76 17.56 26.76C17.2133 27.08 16.8 27.3733 16.32 27.64C16.1067 28.1467 15.9867 28.6 15.96 29ZM19 29.28C18.4933 28.7467 18.0667 28.0267 17.72 27.12C17.8267 27.4933 18 27.9067 18.24 28.36C18.5067 28.7867 18.76 29.0933 19 29.28ZM35.3863 33.12C34.9063 33.0667 34.3863 32.84 33.8262 32.44C33.2662 32.0133 32.8396 31.6 32.5462 31.2C32.9996 31.4133 33.5596 31.56 34.2263 31.64C34.9196 31.72 35.5063 31.6533 35.9863 31.44C35.6129 31.3867 35.2129 31.2 34.7863 30.88C34.3596 30.56 34.0663 30.2267 33.9062 29.88C34.2263 30.04 34.6529 30.1333 35.1863 30.16C35.7196 30.1867 36.1596 30.12 36.5063 29.96C35.9463 29.9067 35.3463 29.6667 34.7063 29.24C34.0663 28.7867 33.5862 28.3333 33.2662 27.88C33.7462 28.2 34.3729 28.4 35.1463 28.48C35.9196 28.56 36.5596 28.4933 37.0663 28.28C36.7996 27.8533 36.3596 27.4667 35.7463 27.12C35.1596 26.7467 34.6129 26.5333 34.1063 26.48C34.5596 26.3733 35.0929 26.3467 35.7063 26.4C35.3596 26.24 35.0396 26.0667 34.7463 25.88C34.4529 25.6667 34.2263 25.44 34.0663 25.2C34.5463 25.4933 35.1596 25.7467 35.9063 25.96C36.6529 26.1733 37.3063 26.1867 37.8663 26C37.4663 25.9733 37.0263 25.8133 36.5462 25.52C36.0929 25.2267 35.7463 24.92 35.5063 24.6C35.8263 24.8133 36.2663 24.96 36.8263 25.04C37.3863 25.12 37.8529 25.0933 38.2263 24.96C37.8796 24.4533 37.3463 23.96 36.6263 23.48C35.9329 23 35.2796 22.7067 34.6663 22.6C35.2529 22.3867 35.9729 22.32 36.8263 22.4C37.7063 22.48 38.4129 22.68 38.9463 23C38.5463 22.4933 37.9463 22.0667 37.1463 21.72C36.3729 21.3467 35.6663 21.1467 35.0263 21.12C35.3196 21.0667 35.6529 21.04 36.0263 21.04C35.6529 20.8 35.3596 20.5333 35.1463 20.24C35.6796 20.6667 36.3729 20.9733 37.2263 21.16C38.0796 21.3467 38.8396 21.4 39.5063 21.32C38.9463 21.24 38.3329 21 37.6663 20.6C37.0263 20.2 36.5729 19.76 36.3063 19.28C36.7596 19.5733 37.3729 19.76 38.1463 19.84C38.9196 19.92 39.5729 19.8667 40.1063 19.68C39.8129 19.1733 39.3463 18.6667 38.7063 18.16C38.0663 17.6267 37.4663 17.28 36.9063 17.12C37.4129 16.9333 38.0529 16.8267 38.8263 16.8C39.5996 16.7733 40.2529 16.8533 40.7863 17.04C40.4396 16.88 40.0929 16.6533 39.7463 16.36C39.3996 16.04 39.1596 15.72 39.0263 15.4C39.3729 15.5067 39.8129 15.56 40.3463 15.56C40.8796 15.56 41.3063 15.4667 41.6263 15.28C41.0663 15.1467 40.4663 14.8267 39.8263 14.32C39.1863 13.8133 38.7463 13.2933 38.5063 12.76C39.0396 12.9733 39.7196 13.0933 40.5463 13.12C41.3729 13.12 42.0263 12.9867 42.5063 12.72C42.2663 12.72 41.8529 12.6133 41.2663 12.4C40.6796 12.1867 40.0396 11.9333 39.3463 11.64C38.6796 11.32 38.0663 11 37.5063 10.68C36.9729 10.36 36.6263 10.1067 36.4663 9.92C36.6529 10.08 37.0396 10.2667 37.6263 10.48C38.2396 10.6667 38.9063 10.8533 39.6263 11.04C40.3463 11.2 41.0129 11.3333 41.6263 11.44C42.2663 11.5467 42.7063 11.5733 42.9463 11.52C42.5463 11.28 42.1196 10.88 41.6663 10.32C41.2396 9.73333 40.9729 9.21333 40.8663 8.76C41.2929 8.94667 41.8663 9.06667 42.5863 9.12C43.3329 9.14667 43.9063 9.05333 44.3063 8.84C44.4929 8.52 44.6263 8.12 44.7063 7.64C44.8129 7.13333 44.8129 6.70666 44.7063 6.36C44.9729 6.70666 45.1596 7.17333 45.2663 7.76C45.3196 7.2 45.4396 6.64 45.6263 6.08C45.8396 5.49333 46.0929 5.02666 46.3863 4.68C46.3063 5.29333 46.3863 6.01333 46.6263 6.84C46.8663 7.64 47.1596 8.29333 47.5063 8.8C47.4529 8.21333 47.5196 7.54667 47.7063 6.8C47.8929 6.02666 48.1729 5.41333 48.5463 4.96C48.3863 5.52 48.4129 6.2 48.6263 7C48.8396 7.77333 49.1463 8.37333 49.5463 8.8C49.7863 8.50667 49.9463 8.12 50.0263 7.64C50.1329 7.13333 50.1596 6.69333 50.1063 6.32C50.3729 6.69333 50.5596 7.16 50.6663 7.72C50.7996 6.70666 51.1196 5.82666 51.6263 5.08C51.5463 5.64 51.5996 6.29333 51.7863 7.04C51.9729 7.76 52.2263 8.34667 52.5463 8.8C52.9996 8.37333 53.3729 7.77333 53.6663 7C53.9596 6.22667 54.1196 5.53333 54.1463 4.92C54.4396 5.45333 54.5729 6.14667 54.5463 7C54.5196 7.85333 54.3863 8.56 54.1463 9.12C54.6796 9.14667 55.2663 9.06667 55.9063 8.88C56.5729 8.69333 57.1196 8.44 57.5463 8.12C57.3063 8.6 56.8796 9.02667 56.2663 9.4C55.6529 9.74667 55.0796 9.94667 54.5463 10C55.1863 10.2133 55.9596 10.3067 56.8663 10.28C57.7729 10.2267 58.5196 10.0533 59.1063 9.76C58.8396 10.3733 58.3063 10.9467 57.5063 11.48C56.7329 12.0133 56.0263 12.3333 55.3863 12.44C55.9996 12.68 56.7596 12.7867 57.6663 12.76C58.5996 12.7333 59.3596 12.5467 59.9463 12.2C59.7329 12.6 59.3996 13.0133 58.9463 13.44C58.4929 13.84 58.0129 14.1733 57.5063 14.44C58.2529 14.3333 58.8929 14.3733 59.4263 14.56C58.9729 14.6133 58.4663 14.8267 57.9063 15.2C57.3729 15.5733 56.9863 15.96 56.7463 16.36C57.1463 16.4667 57.6129 16.5067 58.1463 16.48C58.7063 16.4267 59.1729 16.32 59.5463 16.16C59.4129 16.4 59.1996 16.64 58.9062 16.88C59.9196 16.5333 60.8396 16.44 61.6663 16.6C60.9996 16.5467 60.2529 16.72 59.4263 17.12C58.5996 17.52 57.9596 17.9733 57.5063 18.48C57.9596 18.2133 58.5463 18.0533 59.2663 18C60.0129 17.9467 60.6396 18.0133 61.1463 18.2C60.6129 18.3067 60.0396 18.5733 59.4263 19C58.8129 19.4 58.3863 19.8267 58.1463 20.28C58.4929 20.4667 58.9596 20.5867 59.5463 20.64C60.1329 20.6933 60.5996 20.64 60.9463 20.48C60.8396 20.8267 60.5863 21.1867 60.1863 21.56C59.7863 21.9067 59.4129 22.16 59.0663 22.32C59.5463 22.1333 60.1463 22.0533 60.8663 22.08C61.5863 22.08 62.1729 22.1733 62.6263 22.36C62.1196 22.4667 61.5596 22.76 60.9463 23.24C60.3329 23.72 59.9063 24.2 59.6663 24.68C60.0396 24.4667 60.5329 24.36 61.1463 24.36C61.7863 24.3333 62.2929 24.4267 62.6663 24.64C62.2396 24.72 61.7729 24.9467 61.2663 25.32C60.7863 25.6933 60.4663 26.08 60.3063 26.48C60.8129 26.72 61.4663 26.8267 62.2663 26.8C63.0663 26.7467 63.7196 26.5733 64.2263 26.28C63.9863 26.7067 63.6129 27.12 63.1063 27.52C62.6263 27.92 62.1329 28.2133 61.6263 28.4C62.0263 28.3467 62.4663 28.3467 62.9463 28.4C63.4263 28.4533 63.8129 28.5467 64.1063 28.68C63.7063 28.84 63.2529 29.12 62.7463 29.52C62.2663 29.92 61.9463 30.32 61.7863 30.72C62.2129 30.56 62.7596 30.4933 63.4263 30.52C64.1196 30.52 64.6663 30.6133 65.0663 30.8C64.6129 30.9067 64.1196 31.1867 63.5863 31.64C63.0796 32.0933 62.7463 32.5333 62.5863 32.96C63.1463 32.5333 63.9063 32.2533 64.8663 32.12C65.8263 31.96 66.6396 32 67.3063 32.24C66.6129 32.3467 65.8396 32.6267 64.9863 33.08C64.1596 33.5333 63.5463 34.0533 63.1463 34.64C63.4129 34.7467 63.6796 34.9333 63.9463 35.2C64.2396 35.4667 64.4396 35.7467 64.5463 36.04C64.3596 35.8 64.0796 35.6 63.7063 35.44C63.3596 35.28 63.0396 35.2 62.7463 35.2C62.5063 35.4667 62.2929 35.8533 62.1063 36.36C61.9463 36.8933 61.8796 37.3467 61.9063 37.72C61.6929 37.5333 61.5063 37.2667 61.3463 36.92C61.2129 36.6 61.1196 36.2667 61.0663 35.92C61.0396 36.48 60.9329 37.0667 60.7463 37.68C60.5863 38.2933 60.3596 38.8 60.0663 39.2C60.1996 38.6133 60.1596 37.92 59.9463 37.12C59.7329 36.3467 59.4663 35.7067 59.1463 35.2C58.7463 35.5733 58.4263 36.1333 58.1863 36.88C57.9463 37.6533 57.8663 38.3067 57.9463 38.84C57.6796 38.5467 57.4396 38.16 57.2263 37.68C57.0396 37.2 56.9063 36.7333 56.8263 36.28C56.7463 37.1867 56.4796 37.9733 56.0263 38.64C56.1596 38.1333 56.1596 37.5333 56.0263 36.84C55.9196 36.1733 55.7329 35.6133 55.4663 35.16C55.0129 35.4267 54.3996 35.64 53.6263 35.8C52.8796 35.96 52.2529 35.96 51.7463 35.8C52.2529 35.6133 52.7863 35.2533 53.3463 34.72C53.9063 34.1867 54.2796 33.6533 54.4662 33.12C54.1196 33.6267 53.5863 34.0933 52.8663 34.52C52.1463 34.9467 51.4929 35.1867 50.9063 35.24C51.1996 35.0267 51.4796 34.72 51.7463 34.32C51.5596 34.1333 51.3863 33.8667 51.2263 33.52C51.0929 33.1733 50.9863 32.8267 50.9063 32.48C50.8796 32.9867 50.7729 33.5067 50.5863 34.04C50.3996 34.5733 50.1863 35.0133 49.9463 35.36C50.0529 34.8 50.0129 34.1467 49.8263 33.4C49.6663 32.6533 49.4129 32.04 49.0663 31.56C48.8263 31.96 48.6263 32.48 48.4663 33.12C48.3329 33.76 48.3329 34.32 48.4663 34.8C48.1729 34.4 47.9596 33.88 47.8263 33.24C47.7196 32.6 47.7196 32.04 47.8263 31.56C47.5863 31.88 47.4263 32.3067 47.3463 32.84C47.2929 33.3733 47.3196 33.8267 47.4263 34.2C47.1596 33.7733 46.9996 33.24 46.9463 32.6C46.8129 33.1867 46.6263 33.72 46.3863 34.2C46.9196 34.9467 47.4796 35.6533 48.0663 36.32C48.6529 36.9867 49.0796 37.4 49.3463 37.56C49.0529 37.48 48.5729 37.16 47.9063 36.6C47.2396 36.0667 46.5729 35.48 45.9063 34.84V34.88V34.84C45.6663 34.6 45.4396 34.3733 45.2263 34.16C44.6396 34.2133 44.1196 34.16 43.6663 34C44.1996 34.2933 44.7196 34.7333 45.2263 35.32C45.7596 35.88 46.1196 36.4267 46.3063 36.96C45.8529 36.5067 45.2396 36.1067 44.4662 35.76C43.6929 35.3867 42.9863 35.2 42.3463 35.2C42.0263 35.7867 41.7863 36.5067 41.6263 37.36C41.4663 38.2133 41.4796 38.96 41.6663 39.6C41.2129 38.88 40.9329 38 40.8263 36.96C40.7196 37.4667 40.5596 37.9467 40.3463 38.4C40.1329 38.88 39.8796 39.2533 39.5863 39.52C39.6396 38.88 39.5329 38.12 39.2663 37.24C38.9996 36.3867 38.6663 35.7067 38.2663 35.2C38.2929 35.5733 38.2529 36 38.1463 36.48C38.0663 36.96 37.9196 37.36 37.7063 37.68C37.7863 37.3067 37.7596 36.88 37.6263 36.4C37.5196 35.92 37.3596 35.52 37.1463 35.2C36.7462 35.6267 36.4129 36.2267 36.1463 37C35.9063 37.8 35.8529 38.48 35.9863 39.04C35.5596 38.64 35.2529 37.9467 35.0663 36.96C34.8796 36 34.9863 34.72 35.3863 33.12ZM47.9063 17.92C48.0396 17.9467 48.1863 18 48.3463 18.08C48.4263 18 48.5063 17.9333 48.5863 17.88C48.3196 17.8533 48.0929 17.8667 47.9063 17.92ZM50.2663 18.56C49.9729 18.4 49.5863 18.32 49.1063 18.32L49.0663 18.48C49.2796 18.6667 49.4396 18.8267 49.5463 18.96C49.7863 18.7467 50.0263 18.6133 50.2663 18.56ZM48.8663 18.36V18.32C48.8663 18.32 48.8529 18.32 48.8263 18.32L48.8663 18.36ZM47.3463 19.76C47.6663 19.76 47.9996 19.8533 48.3463 20.04C48.7196 20.2267 48.9596 20.4133 49.0663 20.6C49.3596 20.4933 49.6396 20.36 49.9063 20.2C50.1996 20.0133 50.4263 19.8133 50.5863 19.6C50.4263 19.4933 50.1863 19.4267 49.8663 19.4C49.5729 19.3733 49.3329 19.4 49.1463 19.48C49.2263 19.32 49.3463 19.16 49.5063 19C49.2396 18.8933 48.9196 18.84 48.5463 18.84L48.5063 18.96L48.4663 18.84C48.1196 18.84 47.8263 18.8933 47.5863 19C47.7729 19.0267 47.9863 19.12 48.2263 19.28C48.4663 19.44 48.6396 19.6 48.7463 19.76C48.5596 19.68 48.3196 19.64 48.0263 19.64C47.7596 19.6133 47.5329 19.6533 47.3463 19.76ZM48.7463 22.24C48.7463 22.24 48.7196 22.2267 48.6663 22.2C48.6929 22.7333 48.7729 23.3467 48.9063 24.04C49.0663 24.7333 49.1996 25.1733 49.3063 25.36C49.2796 25.0933 49.3063 24.7733 49.3863 24.4C49.4663 24 49.5996 23.6933 49.7863 23.48C49.7596 23.6933 49.7729 23.9467 49.8263 24.24C50.1196 24.2133 50.4396 24.0933 50.7863 23.88C50.8129 23.5867 50.7996 23.32 50.7463 23.08C50.8796 23.24 50.9863 23.44 51.0663 23.68C51.3329 23.4933 51.5329 23.2933 51.6663 23.08C51.4529 22.9733 51.1729 22.9067 50.8263 22.88C50.4796 22.8533 50.1863 22.88 49.9463 22.96C50.0529 22.7467 50.2396 22.5333 50.5063 22.32C50.7996 22.08 51.0529 21.9333 51.2663 21.88C51.0263 21.96 50.7196 21.9867 50.3463 21.96C49.9729 21.9067 49.6796 21.8133 49.4663 21.68C49.7063 21.6 49.9729 21.44 50.2663 21.2C50.5596 20.96 50.7596 20.7333 50.8663 20.52C50.5729 20.7067 50.1996 20.8133 49.7463 20.84C49.2929 20.8667 48.9196 20.8267 48.6263 20.72C48.7329 20.6933 48.8529 20.6667 48.9863 20.64C48.7196 20.5067 48.3996 20.44 48.0263 20.44C47.6796 20.4133 47.3863 20.44 47.1463 20.52C47.3329 20.5467 47.5463 20.64 47.7863 20.8C48.0529 20.96 48.2396 21.12 48.3463 21.28C48.1596 21.2 47.9196 21.16 47.6263 21.16C47.3329 21.16 47.0929 21.2 46.9063 21.28C47.1463 21.28 47.4129 21.36 47.7063 21.52C47.9996 21.6533 48.2663 21.8133 48.5063 22C48.5596 21.7333 48.6263 21.5467 48.7063 21.44C48.6529 21.5733 48.6396 21.8133 48.6663 22.16L48.7463 22.24ZM46.6663 22.04C46.8263 22.28 47.0663 22.5067 47.3863 22.72C47.7329 22.9333 48.0263 23.0533 48.2663 23.08C48.3196 22.7067 48.3863 22.3867 48.4663 22.12C48.1729 22.0133 47.8529 21.9467 47.5063 21.92C47.1863 21.8933 46.9063 21.9333 46.6663 22.04ZM46.8663 23.24C47.3463 23.4267 47.7596 23.6933 48.1063 24.04C48.1329 23.7467 48.1729 23.4533 48.2263 23.16C47.7996 23.2933 47.3463 23.32 46.8663 23.24ZM46.5063 24.44C46.7729 24.5733 47.0129 24.7333 47.2263 24.92C47.3329 24.68 47.4129 24.4267 47.4663 24.16C47.1196 24.1333 46.7863 24.1467 46.4663 24.2C46.4663 24.28 46.4796 24.36 46.5063 24.44ZM51.9863 24.16C51.9863 24.16 51.9729 24.16 51.9463 24.16C51.9196 24.16 51.8529 24.2 51.7463 24.28C51.7463 24.3067 51.7463 24.3467 51.7463 24.4C51.8263 24.32 51.9063 24.24 51.9863 24.16ZM47.8263 24.2C47.9329 24.44 47.9996 24.6933 48.0263 24.96C48.0263 24.7733 48.0396 24.5333 48.0663 24.24C47.9863 24.24 47.9063 24.2267 47.8263 24.2ZM45.9863 24.28C45.9863 24.28 45.9996 24.2933 46.0263 24.32C46.0529 24.32 46.1329 24.3333 46.2663 24.36C46.2929 24.3067 46.3196 24.2533 46.3463 24.2C46.5329 24.1733 46.7063 24.16 46.8663 24.16C47.0263 24.1333 47.0529 24.1333 46.9463 24.16C46.8663 24.1867 46.5463 24.2267 45.9863 24.28ZM50.2663 25.36C50.4529 25.12 50.5996 24.8133 50.7063 24.44C50.3329 24.44 50.0396 24.3867 49.8263 24.28C49.9063 24.7333 50.0529 25.0933 50.2663 25.36ZM46.9463 25.36L47.0263 25.24C46.9463 25.2133 46.8796 25.2 46.8263 25.2C46.8529 25.2533 46.8929 25.3067 46.9463 25.36ZM52.7463 31.56C52.4796 31.88 52.2396 32.32 52.0263 32.88C51.8129 33.44 51.7329 33.9067 51.7863 34.28C52.0529 33.8533 52.2796 33.4 52.4663 32.92C52.6529 32.4133 52.7463 31.96 52.7463 31.56ZM44.7863 31.56C44.8396 31.72 44.9463 31.9467 45.1063 32.24C45.2663 32.5333 45.4663 32.8533 45.7063 33.2C45.4663 32.48 45.1596 31.9333 44.7863 31.56ZM72.5281 32.84C72.2348 32.6 71.8348 32.4133 71.3281 32.28C70.8481 32.1467 70.4348 32.12 70.0881 32.2C70.3815 31.9867 70.7681 31.8133 71.2481 31.68C71.7548 31.52 72.1815 31.48 72.5281 31.56C72.2615 31.2933 71.8615 31.0533 71.3281 30.84C70.8215 30.6 70.3815 30.4667 70.0081 30.44C70.2215 30.2 70.5548 29.9733 71.0081 29.76C71.4881 29.52 71.9148 29.3867 72.2881 29.36C71.7548 29.36 71.1415 29.2267 70.4481 28.96C69.7815 28.6667 69.2615 28.3467 68.8881 28C69.4215 28 70.0615 27.8667 70.8081 27.6C71.5548 27.3067 72.1281 26.9867 72.5281 26.64C72.1015 26.64 71.5948 26.48 71.0081 26.16C70.4481 25.84 70.0348 25.52 69.7681 25.2C70.1948 25.1733 70.7015 25.0133 71.2881 24.72C71.8748 24.4267 72.2881 24.1067 72.5281 23.76C72.1015 23.36 71.4748 23.0267 70.6481 22.76C69.8481 22.4667 69.1548 22.32 68.5681 22.32C68.9948 21.92 69.6081 21.5733 70.4081 21.28C71.2348 20.96 71.9415 20.8267 72.5281 20.88C72.0215 20.5867 71.3948 20.3733 70.6481 20.24C69.9015 20.08 69.2481 20.0667 68.6881 20.2C69.1415 19.8267 69.7415 19.5733 70.4881 19.44C70.5148 19.3333 70.5281 19.2533 70.5281 19.2C70.1281 19.0933 69.7548 18.96 69.4081 18.8C69.0881 18.6133 68.8215 18.4133 68.6081 18.2C69.1148 18.2267 69.7015 18.1467 70.3681 17.96C70.2881 17.56 70.1681 17.1733 70.0081 16.8L69.8881 16.72H70.0081C69.8481 16.3733 69.6881 16.0667 69.5281 15.8C69.5281 16.2267 69.3815 16.7333 69.0881 17.32C68.7948 17.9067 68.4881 18.3333 68.1681 18.6C68.1681 18.1733 68.0215 17.68 67.7281 17.12C67.4348 16.5333 67.1415 16.0933 66.8481 15.8C66.4481 16.1733 66.0748 16.72 65.7281 17.44C65.4081 18.1333 65.2748 18.76 65.3281 19.32C65.0348 18.84 64.8481 18.2267 64.7681 17.48C64.6881 16.7067 64.7015 16.0533 64.8081 15.52C64.1681 15.2 63.3948 14.9867 62.4881 14.88C61.5548 14.7733 60.7548 14.8267 60.0881 15.04C60.4615 14.88 60.8881 14.7333 61.3681 14.6C61.8215 14.4667 62.2881 14.3733 62.7681 14.32C62.3948 14.24 62.0348 14.12 61.6881 13.96C61.3148 13.8 61.0081 13.6133 60.7681 13.4C61.3548 13.5333 62.0615 13.4667 62.8881 13.2C63.6881 12.9333 64.3281 12.6133 64.8081 12.24C64.4881 11.92 64.0215 11.6667 63.4081 11.48C62.8215 11.2933 62.3015 11.2267 61.8481 11.28C62.1148 11.0133 62.5015 10.8 63.0081 10.64C63.5148 10.4533 63.9948 10.3467 64.4481 10.32C63.8881 10.2933 63.3015 10.1467 62.6881 9.88C62.0481 9.58666 61.5415 9.25333 61.1681 8.88C61.6748 9.14667 62.3281 9.26667 63.1281 9.24C63.9281 9.21333 64.5815 9.06667 65.0881 8.8C65.0615 8.45333 65.1548 8.04 65.3681 7.56C65.5815 7.05333 65.8081 6.66667 66.0481 6.4C66.0215 6.74667 66.1015 7.17333 66.2881 7.68C66.4748 8.18667 66.7148 8.56 67.0081 8.8C67.3281 8.45333 67.6081 7.96 67.8481 7.32C68.1148 6.68 68.2348 6.12 68.2081 5.64C68.4748 5.93333 68.7148 6.34667 68.9281 6.88C69.1681 7.41333 69.3148 7.92 69.3681 8.4C69.3948 7.92 69.5148 7.4 69.7281 6.84C69.9681 6.28 70.2348 5.85333 70.5281 5.56C70.5015 6.04 70.5948 6.61333 70.8081 7.28C71.0481 7.92 71.3148 8.42667 71.6081 8.8C71.5548 8.37333 71.5815 7.88 71.6881 7.32C71.8215 6.73333 72.0348 6.28 72.3281 5.96C72.2748 6.38667 72.3148 6.89333 72.4481 7.48C72.5815 8.04 72.7815 8.48 73.0481 8.8C72.9948 8.26667 73.0481 7.65333 73.2081 6.96C73.3948 6.24 73.6348 5.65333 73.9281 5.2C73.7948 5.73333 73.8215 6.36 74.0081 7.08C74.1948 7.8 74.4615 8.37333 74.8081 8.8C74.7548 8.29333 74.8748 7.69333 75.1681 7C75.4615 6.28 75.7948 5.74667 76.1681 5.4C76.1415 5.90666 76.2748 6.50666 76.5681 7.2C76.8615 7.89333 77.1815 8.42667 77.5281 8.8C77.4748 8.34667 77.5548 7.81333 77.7681 7.2C78.0081 6.58667 78.2748 6.10667 78.5681 5.76C78.4881 6.21333 78.5548 6.76 78.7681 7.4C78.9815 8.01333 79.2615 8.48 79.6081 8.8C79.9015 8.37333 80.1015 7.81333 80.2081 7.12C80.3148 6.4 80.3015 5.78667 80.1681 5.28C80.4615 5.70667 80.6615 6.28 80.7681 7C80.9015 7.69333 80.8881 8.29333 80.7281 8.8C81.1015 8.29333 81.3281 7.62666 81.4081 6.8C81.4881 5.94667 81.4481 5.21333 81.2881 4.6C81.6348 5.13333 81.8481 5.81333 81.9281 6.64C82.0081 7.46667 81.9815 8.18667 81.8481 8.8C82.0881 8.4 82.2348 7.90667 82.2881 7.32C82.3681 6.70667 82.3548 6.17333 82.2481 5.72C82.3548 5.93333 82.4481 6.18667 82.5281 6.48C82.6348 5.81333 82.7948 5.24 83.0081 4.76C82.8481 5.34666 82.7948 6.04 82.8481 6.84C82.9015 7.64 83.0881 8.29333 83.4081 8.8C83.3015 8.18667 83.3415 7.48 83.5281 6.68C83.7415 5.85333 84.0215 5.18666 84.3681 4.68C84.3148 5.29333 84.3681 6.01333 84.5281 6.84C84.7148 7.64 84.9815 8.29333 85.3281 8.8C85.7015 8.21333 85.9815 7.48 86.1681 6.6C86.3548 5.72 86.3681 4.94667 86.2081 4.28C86.5815 4.86667 86.8615 5.61333 87.0481 6.52C87.2615 7.4 87.2748 8.16 87.0881 8.8C87.4081 8.32 87.6081 7.70667 87.6881 6.96C87.7681 6.21333 87.7281 5.56 87.5681 5C87.8081 5.34667 87.9815 5.78667 88.0881 6.32C88.1948 6.82666 88.2348 7.32 88.2081 7.8C88.3681 7.24 88.6081 6.68 88.9281 6.12C89.2481 5.53333 89.6081 5.05333 90.0081 4.68C89.5548 5.18666 89.2081 5.88 88.9681 6.76C88.7281 7.64 88.6748 8.41333 88.8081 9.08C89.3415 9.37333 89.9948 9.57333 90.7681 9.68C91.5415 9.78666 92.2081 9.74667 92.7681 9.56C92.2348 9.88 91.5415 10.08 90.6881 10.16C90.8748 10.24 91.0481 10.32 91.2081 10.4C90.8615 10.32 90.4481 10.32 89.9681 10.4C89.4881 10.48 89.1015 10.6133 88.8081 10.8C89.1548 11.1467 89.6081 11.44 90.1681 11.68C90.7548 11.8933 91.3548 12.0533 91.9681 12.16C92.5815 12.24 93.1148 12.24 93.5681 12.16C92.7148 12.7733 91.6481 13.1867 90.3681 13.4C91.0881 13.4267 91.8348 13.4933 92.6081 13.6C93.4081 13.7067 93.9281 13.8267 94.1681 13.96C93.9815 13.9067 93.6348 13.88 93.1281 13.88C92.6215 13.88 92.0615 13.9067 91.4481 13.96C90.8615 13.9867 90.3148 14.0533 89.8081 14.16C89.3015 14.24 88.9681 14.3333 88.8081 14.44C88.9415 14.8667 89.2081 15.3067 89.6081 15.76C90.0348 16.2133 90.4481 16.5467 90.8481 16.76C90.3948 16.8133 89.8615 16.7467 89.2481 16.56C88.6615 16.3733 88.2081 16.12 87.8881 15.8C88.1281 16.4133 88.1815 17.1467 88.0481 18C87.9415 18.8533 87.7281 19.56 87.4081 20.12C87.5948 19.5067 87.6481 18.7733 87.5681 17.92C87.4881 17.0667 87.2748 16.36 86.9281 15.8C87.0348 16.2533 87.0348 16.7733 86.9281 17.36C86.8215 17.9467 86.6481 18.52 86.4081 19.08C86.1681 19.6133 85.9015 20.0533 85.6081 20.4C85.6348 19.9467 85.6081 19.4267 85.5281 18.84C85.4481 18.2267 85.2881 17.6533 85.0481 17.12C84.8348 16.56 84.5681 16.12 84.2481 15.8C84.3015 16.3333 84.2481 16.9467 84.0881 17.64C84.3015 17.72 84.5015 17.7867 84.6881 17.84C84.4748 17.9467 84.2348 18.0267 83.9681 18.08C83.7815 18.8 83.5281 19.3733 83.2081 19.8C84.1415 20.0667 84.8615 20.4267 85.3681 20.88C84.7281 20.8 83.9681 20.88 83.0881 21.12C82.2081 21.36 81.5415 21.7067 81.0881 22.16C81.7015 21.9467 82.4481 21.92 83.3281 22.08C84.2348 22.2133 84.9681 22.4533 85.5281 22.8C84.9148 22.5867 84.1681 22.56 83.2881 22.72C82.4081 22.88 81.6748 23.12 81.0881 23.44C81.5948 23.7867 82.2481 24.0267 83.0481 24.16C83.8481 24.2667 84.5281 24.2133 85.0881 24C84.5815 24.32 83.9281 24.5467 83.1281 24.68C82.3281 24.8133 81.6481 24.7733 81.0881 24.56C81.4615 24.8533 81.9548 25.04 82.5681 25.12C83.1815 25.1733 83.7148 25.1467 84.1681 25.04C83.8748 25.2533 83.5015 25.4133 83.0481 25.52C82.5948 25.6 82.1548 25.6267 81.7281 25.6C82.1281 25.7333 82.5415 25.9333 82.9681 26.2C83.3948 26.4667 83.7281 26.72 83.9681 26.96C83.5415 26.96 83.0215 27.12 82.4081 27.44C81.7948 27.7333 81.3548 28.0533 81.0881 28.4C81.6481 28.3467 82.3148 28.48 83.0881 28.8C83.8615 29.12 84.4348 29.4933 84.8081 29.92C84.2481 29.92 83.5815 30.08 82.8081 30.4C82.0615 30.6933 81.4881 31.0267 81.0881 31.4C81.3815 31.6667 81.7948 31.88 82.3281 32.04C82.8615 32.1733 83.3281 32.2 83.7281 32.12C83.4081 32.36 82.9815 32.56 82.4481 32.72C81.9415 32.88 81.5015 32.92 81.1281 32.84C81.8215 32.92 82.5948 33.1867 83.4481 33.64C84.3015 34.0667 84.9148 34.5733 85.2881 35.16C84.6481 34.8933 83.8348 34.76 82.8481 34.76C81.8881 34.7333 81.1015 34.88 80.4881 35.2C80.5681 35.52 80.5948 36.1067 80.5681 36.96C80.5415 37.8133 80.4748 38.7467 80.3681 39.76C80.2881 40.7733 80.1815 41.6933 80.0481 42.52C79.9148 43.3733 79.7681 43.9467 79.6081 44.24C79.6881 43.92 79.7281 43.32 79.7281 42.44C79.7281 41.5867 79.6748 40.6533 79.5681 39.64C79.4881 38.6267 79.3681 37.6933 79.2081 36.84C79.0748 36.0133 78.9148 35.4667 78.7281 35.2C78.3281 35.5733 77.9548 36.1333 77.6081 36.88C77.2881 37.6533 77.1548 38.3067 77.2081 38.84C76.8348 38.44 76.4881 37.8667 76.1681 37.12C75.8481 36.3733 75.6881 35.7333 75.6881 35.2C75.3148 35.7067 75.0081 36.3867 74.7681 37.24C74.5548 38.12 74.5415 38.8667 74.7281 39.48C74.4348 39.08 74.1948 38.56 74.0081 37.92C73.9815 38.6133 73.9415 39.32 73.8881 40.04C73.8348 40.7867 73.7548 41.44 73.6481 42C73.5415 42.5867 73.4215 42.9867 73.2881 43.2C73.3948 42.9333 73.4481 42.4 73.4481 41.6C73.4748 40.8267 73.4481 39.92 73.3681 38.88C73.2881 37.8667 73.1681 36.8267 73.0081 35.76C72.8748 34.6933 72.7148 33.72 72.5281 32.84ZM81.7281 15.8C81.7281 15.8267 81.7415 15.84 81.7681 15.84L81.7281 15.8ZM72.5281 16.92C72.3415 16.9733 72.1281 17.0133 71.8881 17.04C71.8615 17.1467 71.8348 17.2667 71.8081 17.4C72.1015 17.24 72.3415 17.08 72.5281 16.92ZM81.0881 18.04C81.5415 18.4667 82.1548 18.7333 82.9281 18.84C82.9015 18.6267 82.8615 18.4267 82.8081 18.24C82.1415 18.24 81.5681 18.1733 81.0881 18.04ZM81.9281 19.56C82.2748 19.5867 82.6348 19.6533 83.0081 19.76C83.0081 19.6 82.9948 19.4133 82.9681 19.2C82.6481 19.3867 82.3015 19.5067 81.9281 19.56ZM70.8081 19.28C70.8081 19.3067 70.7948 19.3467 70.7681 19.4C70.9015 19.3733 71.0481 19.36 71.2081 19.36C71.0748 19.3333 70.9415 19.3067 70.8081 19.28Z" fill="white"/>
<path d="M95.2813 34.76C94.9346 34.52 94.4813 34.3333 93.9213 34.2C93.3879 34.04 92.9079 33.9867 92.4813 34.04C92.7479 33.8267 93.0946 33.6533 93.5213 33.52C93.9479 33.3867 94.3613 33.32 94.7613 33.32C94.2279 33.2667 93.6546 33.1333 93.0413 32.92C92.4546 32.68 92.0146 32.3867 91.7212 32.04C92.2546 32.0933 92.8812 31.9867 93.6012 31.72C94.3213 31.4533 94.8813 31.1333 95.2813 30.76C94.8279 30.7867 94.2813 30.6933 93.6413 30.48C93.0013 30.2667 92.5346 29.9867 92.2412 29.64C92.6946 29.72 93.2279 29.64 93.8413 29.4C94.4813 29.1333 94.9613 28.84 95.2813 28.52C94.6679 28.68 93.9479 28.6533 93.1213 28.44C92.2946 28.2 91.6412 27.8933 91.1612 27.52C91.7746 27.6267 92.4946 27.5867 93.3213 27.4C94.1746 27.1867 94.8279 26.88 95.2813 26.48C94.8813 26.6133 94.3879 26.6267 93.8013 26.52C93.2413 26.4133 92.8013 26.24 92.4813 26C92.8813 26.1067 93.3613 26.1067 93.9213 26C94.4813 25.8933 94.9346 25.7333 95.2813 25.52C94.8279 25.0933 94.1879 24.7867 93.3613 24.6C92.5346 24.4133 91.8279 24.3733 91.2412 24.48C91.7479 24.1333 92.4013 23.84 93.2013 23.6C94.0013 23.36 94.6946 23.3067 95.2813 23.44C94.9079 23.12 94.4013 22.84 93.7613 22.6C93.1213 22.36 92.5613 22.2667 92.0812 22.32C92.4013 22.0533 92.8146 21.8133 93.3213 21.6C93.8546 21.3867 94.3613 21.2533 94.8413 21.2C94.2013 21.2 93.4946 21.08 92.7213 20.84C91.9746 20.5733 91.3612 20.2667 90.8812 19.92C91.5479 20 92.3213 19.92 93.2013 19.68C94.1079 19.44 94.8013 19.0933 95.2813 18.64C94.7746 18.6667 94.1613 18.52 93.4413 18.2C92.7479 17.8533 92.2146 17.4933 91.8412 17.12C92.3479 17.1467 92.9613 17 93.6813 16.68C94.4279 16.36 94.9613 16 95.2813 15.6C94.6679 15.7867 93.9213 15.7733 93.0413 15.56C92.1879 15.3467 91.5079 15.0533 91.0012 14.68C91.6146 14.8133 92.3479 14.7867 93.2013 14.6C94.0813 14.3867 94.7746 14.0933 95.2813 13.72C94.9346 13.4533 94.4679 13.2667 93.8813 13.16C93.3213 13.0533 92.8279 13.0533 92.4013 13.16C92.8279 12.8933 93.3346 12.7067 93.9213 12.6C93.3879 12.4933 92.9479 12.3333 92.6013 12.12C92.9746 12.2267 93.4279 12.2267 93.9613 12.12C94.4946 11.9867 94.9346 11.8267 95.2813 11.64C94.9346 11.32 94.4279 11.08 93.7613 10.92C93.1213 10.7333 92.5613 10.6533 92.0812 10.68C92.4279 10.36 92.9213 10.12 93.5613 9.96C94.2279 9.77333 94.8013 9.69333 95.2813 9.72C94.9879 9.34667 94.7879 8.84 94.6813 8.2C94.5746 7.53333 94.5746 6.97333 94.6813 6.52C94.8679 6.94667 95.1879 7.38667 95.6413 7.84C96.1213 8.29333 96.5746 8.61333 97.0013 8.8C96.8679 8.29333 96.8679 7.69333 97.0013 7C97.1346 6.28 97.3479 5.69333 97.6413 5.24C97.5079 5.74666 97.4946 6.36 97.6013 7.08C97.7346 7.8 97.9613 8.37333 98.2813 8.8C98.2013 8.13333 98.3213 7.34667 98.6413 6.44C98.9613 5.53333 99.3479 4.82666 99.8013 4.32C99.7479 4.98667 99.8813 5.77333 100.201 6.68C100.521 7.58666 100.895 8.29333 101.321 8.8C101.188 8.34667 101.175 7.8 101.281 7.16C101.415 6.49333 101.641 5.97333 101.961 5.6C101.881 6.08 101.895 6.64 102.001 7.28C102.108 7.92 102.308 8.42667 102.601 8.8C102.895 8.21333 103.095 7.49333 103.201 6.64C103.308 5.76 103.268 5 103.081 4.36C103.321 4.78667 103.508 5.30667 103.641 5.92C103.828 5.22666 104.095 4.68 104.441 4.28C104.308 4.94667 104.335 5.72 104.521 6.6C104.708 7.48 104.975 8.21333 105.321 8.8C105.748 8.29333 106.108 7.6 106.401 6.72C106.695 5.84 106.815 5.06667 106.761 4.4C107.108 4.74667 107.415 5.22667 107.681 5.84C107.948 6.45333 108.121 7.06667 108.201 7.68C108.308 7.01333 108.495 6.49333 108.761 6.12C108.655 6.52 108.655 6.98667 108.761 7.52C108.895 8.05333 109.081 8.48 109.321 8.8C109.695 8.29333 109.975 7.62666 110.161 6.8C110.375 5.97333 110.401 5.25333 110.241 4.64C110.535 5.2 110.748 5.90667 110.881 6.76C111.041 7.58667 111.001 8.29333 110.761 8.88C111.135 8.42666 111.401 7.84 111.561 7.12C111.721 6.4 111.775 5.77333 111.721 5.24C111.988 5.72 112.121 6.33333 112.121 7.08C112.148 7.8 112.068 8.42666 111.881 8.96C112.255 8.66666 112.615 8.22667 112.961 7.64C113.308 7.02666 113.508 6.46666 113.561 5.96C113.828 6.38667 114.001 6.94667 114.081 7.64C114.161 8.33333 114.121 8.92 113.961 9.4C114.095 8.94667 114.401 8.49333 114.881 8.04C115.388 7.56 115.841 7.22667 116.241 7.04C116.028 7.44 115.908 7.98666 115.881 8.68C115.855 9.37333 115.948 9.92 116.161 10.32C116.428 9.92 116.868 9.56 117.481 9.24C118.095 8.89333 118.641 8.72 119.121 8.72C118.801 9.04 118.495 9.52 118.201 10.16C117.935 10.8 117.815 11.36 117.841 11.84C118.428 12.0267 119.175 12.08 120.081 12C120.988 11.92 121.708 11.7067 122.241 11.36C122.001 11.9467 121.535 12.56 120.841 13.2C120.175 13.8133 119.535 14.1867 118.921 14.32C119.268 14.4533 119.681 14.5333 120.161 14.56C120.668 14.56 121.095 14.48 121.441 14.32C121.175 14.5333 120.828 14.72 120.401 14.88C121.015 14.8533 121.641 14.92 122.281 15.08C122.921 15.24 123.441 15.4667 123.841 15.76C123.148 15.5733 122.335 15.6 121.401 15.84C120.468 16.0533 119.708 16.36 119.121 16.76C119.655 16.9467 120.228 17.32 120.841 17.88C121.455 18.4133 121.881 18.9333 122.121 19.44C121.615 19.1467 120.948 19 120.121 19C119.295 18.9733 118.615 19.0533 118.081 19.24C118.455 19.5867 118.775 20.0133 119.041 20.52C119.201 20.44 119.335 20.3467 119.441 20.24C119.361 20.3733 119.268 20.5333 119.161 20.72C119.241 20.88 119.308 21.04 119.361 21.2C119.841 20.7733 120.175 20.36 120.361 19.96C120.335 20.3333 120.241 20.7467 120.081 21.2C119.921 21.6267 119.721 22.04 119.481 22.44C119.641 22.4933 119.801 22.5333 119.961 22.56C119.775 22.5867 119.588 22.5867 119.401 22.56C119.188 22.8533 118.961 23.1067 118.721 23.32C119.228 22.9733 119.841 22.7067 120.561 22.52C121.281 22.3067 121.908 22.2533 122.441 22.36C121.855 22.5467 121.241 22.9333 120.601 23.52C119.961 24.1067 119.548 24.6933 119.361 25.28C119.975 25.04 120.735 24.9867 121.641 25.12C122.548 25.2533 123.281 25.4933 123.841 25.84C123.201 25.8667 122.455 26.0533 121.601 26.4C120.775 26.72 120.148 27.1333 119.721 27.64C120.175 27.6933 120.681 27.8933 121.241 28.24C121.801 28.5867 122.215 28.9467 122.481 29.32C122.055 29.2133 121.508 29.2267 120.841 29.36C120.175 29.4933 119.668 29.7067 119.321 30C119.721 30.1067 120.148 30.3067 120.601 30.6C121.081 30.8667 121.415 31.1733 121.601 31.52C121.255 31.3333 120.815 31.1867 120.281 31.08C119.748 30.9733 119.295 30.9733 118.921 31.08C119.428 31.3733 119.935 31.8267 120.441 32.44C120.948 33.0533 121.281 33.6533 121.441 34.24C121.041 33.7867 120.455 33.4267 119.681 33.16C118.935 32.8933 118.268 32.7467 117.681 32.72C118.108 33.1733 118.455 33.8133 118.721 34.64C118.988 35.44 119.108 36.1467 119.081 36.76C118.841 36.2 118.388 35.6533 117.721 35.12C117.055 34.56 116.428 34.1867 115.841 34C115.681 34.3733 115.601 34.8667 115.601 35.48C115.628 36.0933 115.721 36.5867 115.881 36.96C115.508 36.7733 115.135 36.44 114.761 35.96C114.415 35.48 114.161 35.04 114.001 34.64C114.135 35.04 114.188 35.5067 114.161 36.04C114.161 36.6 114.055 37.0533 113.841 37.4C113.841 37 113.708 36.5467 113.441 36.04C113.201 35.56 112.921 35.2 112.601 34.96C112.735 35.6267 112.695 36.4133 112.481 37.32C112.295 38.2533 112.015 39 111.641 39.56C111.668 38.8933 111.495 38.12 111.121 37.24C110.775 36.36 110.361 35.68 109.881 35.2C109.935 35.6267 109.881 36.1333 109.721 36.72C109.588 37.3067 109.375 37.7733 109.081 38.12C109.135 37.6933 109.081 37.1867 108.921 36.6C108.761 36.0133 108.548 35.5467 108.281 35.2C108.281 35.6 108.148 36.08 107.881 36.64C107.615 37.2267 107.321 37.6533 107.001 37.92C107.028 37.52 106.895 37.0267 106.601 36.44C106.335 35.88 106.055 35.4667 105.761 35.2C105.948 35.76 105.975 36.44 105.841 37.24C105.708 38.04 105.495 38.6933 105.201 39.2C105.335 38.6133 105.348 37.92 105.241 37.12C105.135 36.3467 104.935 35.7067 104.641 35.2C104.615 35.6 104.495 36.0667 104.281 36.6C104.095 37.16 103.868 37.5867 103.601 37.88C103.628 37.48 103.535 37 103.321 36.44C103.135 35.88 102.881 35.4667 102.561 35.2C102.295 35.5733 102.121 36.0667 102.041 36.68C101.988 37.32 102.028 37.8667 102.161 38.32C101.921 37.92 101.748 37.4 101.641 36.76C101.561 36.1467 101.601 35.6267 101.761 35.2C101.548 35.4933 101.348 35.88 101.161 36.36C101.001 36.8667 100.961 37.2933 101.041 37.64C100.748 37.32 100.535 36.8667 100.401 36.28C100.375 36.84 100.281 37.4 100.121 37.96C99.9879 38.5467 99.7879 39.0267 99.5213 39.4C99.6546 38.7867 99.6546 38.0533 99.5213 37.2C99.3879 36.3733 99.1346 35.7067 98.7613 35.2C98.3879 35.7333 98.1479 36.4267 98.0413 37.28C97.9346 38.16 97.9613 38.92 98.1213 39.56C97.8013 38.9733 97.5746 38.2533 97.4413 37.4C97.3079 36.5733 97.3213 35.84 97.4813 35.2C97.2146 35.52 96.9613 35.96 96.7213 36.52C96.5079 37.08 96.4413 37.5733 96.5213 38C96.2546 37.68 96.0013 37.2133 95.7613 36.6C95.5479 36.0133 95.3879 35.4 95.2813 34.76ZM104.481 14.08V14.16H104.561L104.481 14.08ZM106.401 17.6C106.401 17.8667 106.455 18.1733 106.561 18.52C106.695 18.8667 106.855 19.1333 107.041 19.32C107.041 19.1333 107.095 18.9067 107.201 18.64C107.308 18.3733 107.441 18.1733 107.601 18.04C107.601 18.2267 107.655 18.4533 107.761 18.72C107.895 18.9867 108.041 19.1733 108.201 19.28C107.988 19.0133 107.855 18.64 107.801 18.16C107.748 17.68 107.775 17.28 107.881 16.96C107.961 17.28 108.135 17.64 108.401 18.04C108.668 18.44 108.961 18.72 109.281 18.88C109.201 18.5867 109.041 18.2667 108.801 17.92C108.588 17.5733 108.361 17.32 108.121 17.16C108.388 17.1067 108.721 17.12 109.121 17.2C108.748 17.0667 108.375 16.9467 108.001 16.84C107.628 16.7333 107.375 16.6933 107.241 16.72C107.321 16.6667 107.495 16.6133 107.761 16.56C108.055 16.5067 108.375 16.4533 108.721 16.4C108.695 16.4 108.615 16.3733 108.481 16.32C108.748 16.2667 109.015 16.1333 109.281 15.92C109.548 15.68 109.761 15.4533 109.921 15.24C109.735 15.2133 109.495 15.2533 109.201 15.36C108.935 15.44 108.735 15.5467 108.601 15.68C108.575 15.5467 108.575 15.3867 108.601 15.2C108.388 15.5467 108.161 15.8 107.921 15.96C107.975 15.6933 107.961 15.3733 107.881 15C107.801 14.6 107.681 14.2933 107.521 14.08C107.361 14.3467 107.241 14.68 107.161 15.08C107.081 15.48 107.068 15.8267 107.121 16.12C106.935 15.88 106.801 15.56 106.721 15.16C106.641 15.6133 106.508 15.9867 106.321 16.28C106.428 15.9867 106.428 15.6267 106.321 15.2C106.215 14.7467 106.081 14.3733 105.921 14.08C105.948 14.3467 105.881 14.68 105.721 15.08C105.561 15.4533 105.388 15.7333 105.201 15.92C105.228 15.7867 105.215 15.64 105.161 15.48C104.681 15.7733 104.188 15.8933 103.681 15.84C103.868 15.8667 104.108 15.96 104.401 16.12C104.695 16.2533 104.895 16.4 105.001 16.56C104.815 16.56 104.575 16.64 104.281 16.8C104.015 16.96 103.815 17.1067 103.681 17.24C103.948 17.24 104.255 17.3067 104.601 17.44C104.948 17.5467 105.215 17.6933 105.401 17.88C105.135 17.8533 104.828 17.9067 104.481 18.04C104.135 18.1733 103.868 18.3333 103.681 18.52C103.975 18.7333 104.348 18.88 104.801 18.96C104.988 18.5867 105.095 18.24 105.121 17.92C105.281 18.0533 105.428 18.2667 105.561 18.56C105.695 18.8533 105.761 19.1067 105.761 19.32C105.761 19.0533 105.815 18.7467 105.921 18.4C106.055 18.0533 106.215 17.7867 106.401 17.6ZM104.241 15.16C104.561 15.2933 104.868 15.36 105.161 15.36C105.081 15.0667 104.948 14.7733 104.761 14.48C104.681 14.48 104.588 14.4933 104.481 14.52C104.428 14.76 104.348 14.9733 104.241 15.16ZM103.681 14.88C103.788 14.96 103.921 15.04 104.081 15.12C104.081 14.96 104.055 14.8133 104.001 14.68C103.948 14.7067 103.841 14.7733 103.681 14.88ZM116.921 20.36C117.108 20.6533 117.348 20.9333 117.641 21.2C117.908 21.1467 118.148 21.0533 118.361 20.92C117.828 20.5733 117.348 20.3867 116.921 20.36ZM118.241 21.72C118.321 21.7733 118.388 21.8133 118.441 21.84C118.655 21.7333 118.855 21.6 119.041 21.44C118.961 21.36 118.868 21.28 118.761 21.2C118.601 21.3867 118.428 21.56 118.241 21.72ZM117.041 22.44C117.281 22.3867 117.535 22.2933 117.801 22.16L117.681 22.12C117.468 22.28 117.255 22.3867 117.041 22.44ZM104.601 24.4C104.761 24.6667 104.868 25.0133 104.921 25.44H105.081C105.028 25.2533 104.961 25.0667 104.881 24.88C104.828 24.6667 104.735 24.5067 104.601 24.4ZM107.481 27.84C107.668 28.08 107.815 28.4133 107.921 28.84C108.055 29.24 108.095 29.6 108.041 29.92C108.201 29.68 108.308 29.3467 108.361 28.92C108.441 28.4933 108.441 28.1467 108.361 27.88C108.601 28.04 108.828 28.2933 109.041 28.64C109.281 28.9867 109.428 29.3067 109.481 29.6C109.508 29.3867 109.468 29.12 109.361 28.8C109.255 28.4533 109.121 28.2133 108.961 28.08C109.308 28.0533 109.681 28.1333 110.081 28.32C109.761 28.0533 109.535 27.8 109.401 27.56C109.615 27.5867 109.868 27.56 110.161 27.48C110.481 27.4 110.708 27.2933 110.841 27.16C110.468 26.9733 110.041 26.88 109.561 26.88C109.241 27.04 108.908 27.16 108.561 27.24C108.241 27.32 107.935 27.36 107.641 27.36C108.095 27.2 108.575 26.9333 109.081 26.56C109.588 26.16 109.961 25.7467 110.201 25.32C110.095 25.4533 109.895 25.5867 109.601 25.72C109.335 25.8533 109.108 25.92 108.921 25.92C109.001 25.76 109.041 25.5333 109.041 25.24C109.068 24.92 109.055 24.68 109.001 24.52C108.788 24.7067 108.588 25 108.401 25.4C108.241 25.7733 108.175 26.0933 108.201 26.36C108.041 26.2 107.921 25.9733 107.841 25.68C107.761 25.36 107.721 25.0667 107.721 24.8C107.641 25.12 107.521 25.3867 107.361 25.6C107.388 25.4133 107.348 25.2 107.241 24.96C107.161 24.72 107.068 24.5333 106.961 24.4C106.961 24.5867 106.881 24.8133 106.721 25.08C106.561 25.32 106.401 25.4933 106.241 25.6C106.241 25.4133 106.161 25.2 106.001 24.96C105.841 24.6933 105.695 24.5067 105.561 24.4C105.588 24.72 105.495 25.0667 105.281 25.44H105.321C105.321 25.44 105.295 25.4533 105.241 25.48C105.188 25.56 105.135 25.6267 105.081 25.68V25.6L104.921 25.68C104.948 25.84 104.948 25.9733 104.921 26.08C105.295 26.1867 105.575 26.3333 105.761 26.52C105.441 26.4933 105.068 26.5333 104.641 26.64C104.241 26.72 103.921 26.8667 103.681 27.08C104.028 27 104.428 27.04 104.881 27.2C105.361 27.36 105.735 27.56 106.001 27.8C105.655 27.7467 105.241 27.8 104.761 27.96C104.308 28.12 103.948 28.3067 103.681 28.52C103.948 28.4667 104.241 28.4933 104.561 28.6C104.908 28.7067 105.215 28.84 105.481 29C105.508 28.7867 105.508 28.6 105.481 28.44C105.641 28.6 105.748 28.84 105.801 29.16C105.881 29.4533 105.908 29.7067 105.881 29.92C106.041 29.7067 106.175 29.4267 106.281 29.08C106.415 28.7067 106.455 28.3867 106.401 28.12C106.561 28.3333 106.695 28.6267 106.801 29C106.935 29.3467 106.988 29.6533 106.961 29.92C107.148 29.68 107.295 29.3467 107.401 28.92C107.535 28.4933 107.561 28.1333 107.481 27.84ZM103.681 24.88C103.815 25.0133 104.001 25.1333 104.241 25.24C104.055 25.0533 103.868 24.9333 103.681 24.88ZM104.161 25.96C104.401 25.96 104.641 26 104.881 26.08C104.828 25.9733 104.761 25.8667 104.681 25.76C104.521 25.84 104.348 25.9067 104.161 25.96ZM105.081 29.92C105.215 29.7333 105.321 29.4933 105.401 29.2C105.135 29.2267 104.908 29.3067 104.721 29.44C104.561 29.5733 104.681 29.7333 105.081 29.92ZM137.296 35.56C137.216 35.9067 137.016 36.3067 136.696 36.76C136.403 37.24 136.11 37.5867 135.816 37.8C135.896 37.4533 135.83 37 135.616 36.44C135.403 35.9067 135.163 35.52 134.896 35.28C134.976 35.8933 134.87 36.5733 134.576 37.32C134.31 38.0667 133.976 38.68 133.576 39.16C133.896 38.6267 134.083 37.96 134.136 37.16C134.216 36.36 134.163 35.6667 133.976 35.08C133.47 35.5333 133.016 36.1467 132.616 36.92C132.243 37.72 132.07 38.44 132.096 39.08C131.99 38.76 131.923 38.3733 131.896 37.92C131.896 37.4933 131.936 37.0667 132.016 36.64C131.59 37.36 131.123 37.88 130.616 38.2C131.016 37.7467 131.296 37.12 131.456 36.32C131.616 35.52 131.643 34.8267 131.536 34.24C131.376 34.6667 131.07 35.1067 130.616 35.56C130.163 36.0133 129.723 36.32 129.296 36.48C129.616 36.16 129.843 35.6933 129.976 35.08C130.11 34.44 130.163 33.8933 130.136 33.44C129.843 33.7333 129.376 33.9867 128.736 34.2C128.123 34.4133 127.616 34.5067 127.216 34.48C127.483 34.16 127.71 33.6933 127.896 33.08C128.11 32.4667 128.203 31.9467 128.176 31.52C127.643 31.4667 127.016 31.56 126.296 31.8C125.576 32.0133 124.99 32.28 124.536 32.6C124.723 32.0933 125.096 31.5733 125.656 31.04C126.216 30.48 126.763 30.1333 127.296 30C126.896 29.76 126.336 29.5733 125.616 29.44C124.923 29.3067 124.35 29.3067 123.896 29.44C124.056 28.9867 124.416 28.5333 124.976 28.08C125.563 27.6267 126.083 27.3333 126.536 27.2C126.19 27.3333 125.776 27.3867 125.296 27.36C124.816 27.3333 124.416 27.2267 124.096 27.04C124.443 27.12 124.856 27.0933 125.336 26.96C125.816 26.8267 126.19 26.64 126.456 26.4C126.056 26.1333 125.536 25.9067 124.896 25.72C124.283 25.5333 123.736 25.4933 123.256 25.6C123.47 25.3867 123.736 25.2133 124.056 25.08C124.403 24.92 124.763 24.8 125.136 24.72C124.016 24.64 123.07 24.3467 122.296 23.84C122.883 24 123.59 24 124.416 23.84C125.243 23.6533 125.91 23.3867 126.416 23.04C125.963 23.1467 125.443 23.1333 124.856 23C124.27 22.84 123.79 22.6267 123.416 22.36C123.87 22.4133 124.39 22.3733 124.976 22.24C125.563 22.08 126.043 21.88 126.416 21.64C126.23 21.32 125.87 21.0133 125.336 20.72C124.803 20.4 124.35 20.2267 123.976 20.2C124.19 19.9067 124.55 19.6 125.056 19.28C125.59 18.96 126.043 18.7867 126.416 18.76C125.963 18.44 125.35 18.1733 124.576 17.96C123.83 17.7467 123.176 17.6667 122.616 17.72C123.283 17.2133 124.136 16.88 125.176 16.72C124.67 16.6667 124.163 16.5467 123.656 16.36C123.123 16.1467 122.683 15.92 122.336 15.68C122.95 15.7867 123.67 15.7467 124.496 15.56C125.323 15.3467 125.963 15.04 126.416 14.64C126.016 14.7467 125.536 14.7333 124.976 14.6C124.443 14.4667 124.03 14.2667 123.736 14C124.136 14.08 124.603 14.0533 125.136 13.92C125.67 13.7867 126.096 13.6 126.416 13.36C125.963 13.4667 125.43 13.4533 124.816 13.32C124.203 13.1867 123.736 12.96 123.416 12.64C123.87 12.72 124.39 12.6933 124.976 12.56C125.59 12.4267 126.07 12.2133 126.416 11.92C125.723 12.08 124.896 12.0667 123.936 11.88C123.003 11.6667 122.243 11.3733 121.656 11C122.35 11.1333 123.176 11.12 124.136 10.96C125.096 10.8 125.856 10.4933 126.416 10.04C126.123 9.56 125.67 9.10666 125.056 8.68C124.47 8.22667 123.91 7.93333 123.376 7.8C123.91 7.66667 124.536 7.72 125.256 7.96C125.976 8.2 126.563 8.48 127.016 8.8C126.936 8.37333 126.963 7.88 127.096 7.32C127.23 6.76 127.43 6.21333 127.696 5.68C127.963 5.14666 128.243 4.72 128.536 4.4C128.483 5.06667 128.616 5.84 128.936 6.72C129.256 7.6 129.63 8.29333 130.056 8.8C130.35 8.21333 130.536 7.49333 130.616 6.64C130.723 5.76 130.696 5 130.536 4.36C130.91 4.92 131.123 5.64 131.176 6.52C131.256 7.4 131.203 8.16 131.016 8.8C131.363 8.24 131.63 7.54667 131.816 6.72C132.003 5.89333 132.03 5.16 131.896 4.52C132.27 5.05333 132.55 5.74667 132.736 6.6C132.923 7.45333 132.936 8.18667 132.776 8.8C133.15 8.61333 133.51 8.26667 133.856 7.76C134.23 7.25333 134.47 6.78667 134.576 6.36C134.79 6.76 134.91 7.26667 134.936 7.88C134.963 8.49333 134.923 9 134.816 9.4C135.27 9.24 135.816 9.2 136.456 9.28C137.096 9.36 137.616 9.53333 138.016 9.8C137.563 9.64 137.016 9.6 136.376 9.68C135.736 9.76 135.216 9.93333 134.816 10.2C135.11 10.44 135.523 10.6133 136.056 10.72C136.59 10.8267 137.056 10.84 137.456 10.76C137.136 10.9733 136.71 11.1467 136.176 11.28C135.643 11.4133 135.19 11.4267 134.816 11.32C135.136 11.56 135.563 11.76 136.096 11.92C136.63 12.0533 137.083 12.08 137.456 12C137.19 12.24 136.816 12.44 136.336 12.6C135.856 12.7333 135.416 12.7867 135.016 12.76C135.39 12.8133 135.803 12.9733 136.256 13.24C136.736 13.48 137.083 13.7333 137.296 14C136.923 14 136.47 14.1467 135.936 14.44C135.403 14.7067 135.03 14.9867 134.816 15.28C135.323 15.28 135.923 15.44 136.616 15.76C137.31 16.0533 137.816 16.4 138.136 16.8C137.63 16.8 137.03 16.96 136.336 17.28C135.643 17.5733 135.136 17.9067 134.816 18.28C135.003 18.5733 135.35 18.8667 135.856 19.16C136.39 19.4533 136.83 19.6133 137.176 19.64C136.936 19.9067 136.563 20.2 136.056 20.52C135.576 20.8133 135.163 20.9733 134.816 21C135.003 21.2667 135.336 21.56 135.816 21.88C136.323 22.1733 136.736 22.36 137.056 22.44C136.87 22.7067 136.536 23 136.056 23.32C135.576 23.64 135.163 23.8133 134.816 23.84C135.083 24.1067 135.47 24.3733 135.976 24.64C136.51 24.88 136.95 24.9733 137.296 24.92C137.083 25.2133 136.71 25.48 136.176 25.72C135.67 25.96 135.243 26.0933 134.896 26.12C135.19 26.3067 135.616 26.4 136.176 26.4C136.763 26.4 137.216 26.3333 137.536 26.2C137.536 26.2533 137.523 26.2933 137.496 26.32C137.683 26.16 137.87 26.0267 138.056 25.92C137.71 26.24 137.43 26.7067 137.216 27.32C137.003 27.9067 136.936 28.44 137.016 28.92C136.963 28.4133 137.07 27.8267 137.336 27.16C137.63 26.4667 137.976 25.96 138.376 25.64C138.216 26.12 138.203 26.72 138.336 27.44C138.496 28.1333 138.696 28.7067 138.936 29.16C138.696 28.7067 138.563 28.1333 138.536 27.44C138.51 26.7467 138.603 26.2 138.816 25.8C138.55 25.5067 138.296 25.2667 138.056 25.08C138.483 25 139.003 25.0533 139.616 25.24C139.51 25.16 139.43 25.0667 139.376 24.96C139.803 24.9867 140.323 24.8667 140.936 24.6C141.576 24.3067 142.043 24 142.336 23.68C141.91 23.68 141.403 23.5067 140.816 23.16C140.23 22.8133 139.79 22.4933 139.496 22.2C139.923 22.1733 140.443 22 141.056 21.68C141.67 21.36 142.096 21.0267 142.336 20.68C141.856 20.68 141.283 20.5333 140.616 20.24C139.976 19.92 139.483 19.5867 139.136 19.24C139.616 19.24 140.19 19.0933 140.856 18.8C141.523 18.5067 142.016 18.1733 142.336 17.8C142.176 17.56 141.87 17.32 141.416 17.08C140.963 16.8133 140.59 16.6667 140.296 16.64C140.483 16.4 140.79 16.1467 141.216 15.88C141.67 15.5867 142.043 15.44 142.336 15.44C142.016 15.12 141.536 14.8533 140.896 14.64C140.283 14.4267 139.75 14.3467 139.296 14.4C139.643 14.1067 140.123 13.8533 140.736 13.64C141.35 13.4 141.883 13.3067 142.336 13.36C142.07 13.04 141.643 12.7733 141.056 12.56C140.47 12.32 139.963 12.1867 139.536 12.16C139.776 11.9467 140.096 11.7333 140.496 11.52C140.923 11.3067 141.336 11.16 141.736 11.08C141.283 11.1067 140.803 11.08 140.296 11C139.816 10.8933 139.403 10.76 139.056 10.6C139.51 10.76 140.07 10.8133 140.736 10.76C141.403 10.68 141.936 10.4933 142.336 10.2C142.043 9.85333 141.776 9.37333 141.536 8.76C141.323 8.12 141.243 7.58667 141.296 7.16C141.563 7.50667 141.976 7.85333 142.536 8.2C143.096 8.54666 143.603 8.74667 144.056 8.8C144.003 8.21333 144.11 7.53333 144.376 6.76C144.643 5.96 144.963 5.33333 145.336 4.88C145.23 5.46666 145.323 6.16 145.616 6.96C145.91 7.73333 146.243 8.34667 146.616 8.8C146.483 8.50667 146.39 7.96 146.336 7.16C146.31 6.33333 146.323 5.42667 146.376 4.44C146.43 3.45333 146.51 2.56 146.616 1.76C146.723 0.933332 146.856 0.373332 147.016 0.0799975C146.883 0.373332 146.803 0.933332 146.776 1.76C146.776 2.58666 146.79 3.49333 146.816 4.48C146.87 5.44 146.95 6.33333 147.056 7.16C147.163 7.96 147.283 8.50667 147.416 8.8C147.283 8.4 147.256 7.92 147.336 7.36C147.443 6.77333 147.63 6.32 147.896 6C147.79 6.4 147.79 6.88 147.896 7.44C148.003 7.97333 148.163 8.42667 148.376 8.8C148.27 8.53333 148.216 8.04 148.216 7.32C148.243 6.57333 148.296 5.77333 148.376 4.92C148.483 4.04 148.603 3.24 148.736 2.52C148.896 1.8 149.043 1.30667 149.176 1.04C149.096 1.30667 149.056 1.81333 149.056 2.56C149.083 3.28 149.136 4.08 149.216 4.96C149.296 5.84 149.403 6.64 149.536 7.36C149.67 8.08 149.816 8.56 149.976 8.8C150.563 8.61333 151.136 8.24 151.696 7.68C152.256 7.09333 152.63 6.52 152.816 5.96C152.736 6.54667 152.496 7.2 152.096 7.92C151.723 8.61333 151.27 9.10666 150.736 9.4C151.11 9.32 151.536 9.33333 152.016 9.44C152.523 9.54667 152.936 9.69333 153.256 9.88C152.883 9.77333 152.443 9.77333 151.936 9.88C151.43 9.96 151.03 10.12 150.736 10.36C151.296 10.76 152.03 11.04 152.936 11.2C153.843 11.36 154.643 11.4 155.336 11.32C154.776 11.72 154.03 12.0133 153.096 12.2C152.19 12.36 151.403 12.3733 150.736 12.24C151.19 12.6667 151.816 12.9867 152.616 13.2C153.443 13.4133 154.163 13.4933 154.776 13.44C154.296 13.8133 153.643 14.1333 152.816 14.4C152.016 14.6667 151.323 14.7467 150.736 14.64C150.976 14.9333 151.363 15.2267 151.896 15.52C152.456 15.7867 152.923 15.9467 153.296 16C153.11 16.24 152.816 16.48 152.416 16.72C152.016 16.9333 151.63 17.0933 151.256 17.2C151.843 17.12 152.47 17.16 153.136 17.32C153.803 17.48 154.35 17.6933 154.776 17.96C154.19 17.8267 153.496 17.8133 152.696 17.92C151.896 18.0267 151.243 18.2533 150.736 18.6C151.19 18.4667 151.736 18.4667 152.376 18.6C153.016 18.7333 153.536 18.92 153.936 19.16C153.456 19.0533 152.896 19.0533 152.256 19.16C151.643 19.2667 151.136 19.4533 150.736 19.72C151.216 19.6133 151.79 19.64 152.456 19.8C153.15 19.96 153.696 20.2 154.096 20.52C153.59 20.4133 153.003 20.4533 152.336 20.64C151.67 20.8 151.136 21.0267 150.736 21.32C151.136 21.32 151.616 21.4533 152.176 21.72C152.763 21.9867 153.176 22.28 153.416 22.6C153.016 22.5733 152.523 22.6933 151.936 22.96C151.376 23.2267 150.976 23.52 150.736 23.84C151.163 23.8667 151.67 24.04 152.256 24.36C152.87 24.68 153.31 25.0133 153.576 25.36C153.15 25.3333 152.63 25.48 152.016 25.8C151.403 26.0933 150.963 26.4 150.696 26.72C150.963 26.9867 151.336 27.2533 151.816 27.52C152.296 27.76 152.723 27.8533 153.096 27.8C152.776 28.04 152.35 28.1867 151.816 28.24C151.283 28.2933 150.83 28.2667 150.456 28.16C150.856 28.24 151.296 28.4933 151.776 28.92C152.256 29.32 152.563 29.72 152.696 30.12C152.323 29.96 151.83 29.8933 151.216 29.92C150.603 29.9467 150.11 30.0667 149.736 30.28C150.163 30.44 150.603 30.76 151.056 31.24C151.51 31.6933 151.816 32.1467 151.976 32.6C151.63 32.28 151.136 32.0267 150.496 31.84C149.883 31.6267 149.35 31.56 148.896 31.64C149.136 32.28 149.563 32.9067 150.176 33.52C150.816 34.1333 151.443 34.5733 152.056 34.84C151.416 34.68 150.723 34.36 149.976 33.88C149.256 33.3733 148.723 32.8267 148.376 32.24C148.323 32.88 148.47 33.6 148.816 34.4C149.19 35.2 149.603 35.8133 150.056 36.24C149.443 36.1867 148.776 35.9067 148.056 35.4C147.336 34.8667 146.816 34.32 146.496 33.76C146.363 34.1333 146.283 34.64 146.256 35.28C146.23 35.8933 146.296 36.3867 146.456 36.76C146.056 36.6533 145.616 36.4 145.136 36C144.656 35.5733 144.336 35.1867 144.176 34.84C144.256 35.3467 144.216 35.9733 144.056 36.72C143.896 37.4667 143.67 38.0533 143.376 38.48C143.323 37.9733 143.056 37.4 142.576 36.76C142.096 36.12 141.63 35.68 141.176 35.44C140.856 35.9467 140.563 36.6 140.296 37.4C140.03 38.2 139.976 38.88 140.136 39.44C139.683 39.04 139.243 38.44 138.816 37.64C138.39 36.8667 137.883 36.1733 137.296 35.56ZM140.336 28.84C140.283 28.3867 140.123 27.8933 139.856 27.36C139.59 26.8267 139.27 26.3467 138.896 25.92C138.95 26.4 139.11 26.9333 139.376 27.52C139.67 28.08 139.99 28.52 140.336 28.84ZM164.7 32.84C164.407 32.6 164.007 32.4133 163.5 32.28C163.02 32.1467 162.607 32.12 162.26 32.2C162.553 31.9867 162.94 31.8133 163.42 31.68C163.927 31.52 164.353 31.48 164.7 31.56C164.433 31.2933 164.033 31.0533 163.5 30.84C162.993 30.6 162.553 30.4667 162.18 30.44C162.393 30.2 162.727 29.9733 163.18 29.76C163.66 29.52 164.087 29.3867 164.46 29.36C163.927 29.36 163.313 29.2267 162.62 28.96C161.953 28.6667 161.433 28.3467 161.06 28C161.593 28 162.233 27.8667 162.98 27.6C163.727 27.3067 164.3 26.9867 164.7 26.64C164.273 26.64 163.767 26.48 163.18 26.16C162.62 25.84 162.207 25.52 161.94 25.2C162.367 25.1733 162.873 25.0133 163.46 24.72C164.047 24.4267 164.46 24.1067 164.7 23.76C164.273 23.36 163.647 23.0267 162.82 22.76C162.02 22.4667 161.327 22.32 160.74 22.32C161.167 21.92 161.78 21.5733 162.58 21.28C163.407 20.96 164.113 20.8267 164.7 20.88C164.193 20.5867 163.567 20.3733 162.82 20.24C162.073 20.08 161.42 20.0667 160.86 20.2C161.313 19.8267 161.913 19.5733 162.66 19.44C162.687 19.3333 162.7 19.2533 162.7 19.2C162.3 19.0933 161.927 18.96 161.58 18.8C161.26 18.6133 160.993 18.4133 160.78 18.2C161.287 18.2267 161.873 18.1467 162.54 17.96C162.46 17.56 162.34 17.1733 162.18 16.8L162.06 16.72H162.18C162.02 16.3733 161.86 16.0667 161.7 15.8C161.7 16.2267 161.553 16.7333 161.26 17.32C160.967 17.9067 160.66 18.3333 160.34 18.6C160.34 18.1733 160.193 17.68 159.9 17.12C159.607 16.5333 159.313 16.0933 159.02 15.8C158.62 16.1733 158.247 16.72 157.9 17.44C157.58 18.1333 157.447 18.76 157.5 19.32C157.207 18.84 157.02 18.2267 156.94 17.48C156.86 16.7067 156.873 16.0533 156.98 15.52C156.34 15.2 155.567 14.9867 154.66 14.88C153.727 14.7733 152.927 14.8267 152.26 15.04C152.633 14.88 153.06 14.7333 153.54 14.6C153.993 14.4667 154.46 14.3733 154.94 14.32C154.567 14.24 154.207 14.12 153.86 13.96C153.487 13.8 153.18 13.6133 152.94 13.4C153.527 13.5333 154.233 13.4667 155.06 13.2C155.86 12.9333 156.5 12.6133 156.98 12.24C156.66 11.92 156.193 11.6667 155.58 11.48C154.993 11.2933 154.473 11.2267 154.02 11.28C154.287 11.0133 154.673 10.8 155.18 10.64C155.687 10.4533 156.167 10.3467 156.62 10.32C156.06 10.2933 155.473 10.1467 154.86 9.88C154.22 9.58666 153.713 9.25333 153.34 8.88C153.847 9.14667 154.5 9.26667 155.3 9.24C156.1 9.21333 156.753 9.06667 157.26 8.8C157.233 8.45333 157.327 8.04 157.54 7.56C157.753 7.05333 157.98 6.66667 158.22 6.4C158.193 6.74667 158.273 7.17333 158.46 7.68C158.647 8.18667 158.887 8.56 159.18 8.8C159.5 8.45333 159.78 7.96 160.02 7.32C160.287 6.68 160.407 6.12 160.38 5.64C160.647 5.93333 160.887 6.34667 161.1 6.88C161.34 7.41333 161.487 7.92 161.54 8.4C161.567 7.92 161.687 7.4 161.9 6.84C162.14 6.28 162.407 5.85333 162.7 5.56C162.673 6.04 162.767 6.61333 162.98 7.28C163.22 7.92 163.487 8.42667 163.78 8.8C163.727 8.37333 163.753 7.88 163.86 7.32C163.993 6.73333 164.207 6.28 164.5 5.96C164.447 6.38667 164.487 6.89333 164.62 7.48C164.753 8.04 164.953 8.48 165.22 8.8C165.167 8.26667 165.22 7.65333 165.38 6.96C165.567 6.24 165.807 5.65333 166.1 5.2C165.967 5.73333 165.993 6.36 166.18 7.08C166.367 7.8 166.633 8.37333 166.98 8.8C166.927 8.29333 167.047 7.69333 167.34 7C167.633 6.28 167.967 5.74667 168.34 5.4C168.313 5.90666 168.447 6.50666 168.74 7.2C169.033 7.89333 169.353 8.42667 169.7 8.8C169.647 8.34667 169.727 7.81333 169.94 7.2C170.18 6.58667 170.447 6.10667 170.74 5.76C170.66 6.21333 170.727 6.76 170.94 7.4C171.153 8.01333 171.433 8.48 171.78 8.8C172.073 8.37333 172.273 7.81333 172.38 7.12C172.487 6.4 172.473 5.78667 172.34 5.28C172.633 5.70667 172.833 6.28 172.94 7C173.073 7.69333 173.06 8.29333 172.9 8.8C173.273 8.29333 173.5 7.62666 173.58 6.8C173.66 5.94667 173.62 5.21333 173.46 4.6C173.807 5.13333 174.02 5.81333 174.1 6.64C174.18 7.46667 174.153 8.18667 174.02 8.8C174.26 8.4 174.407 7.90667 174.46 7.32C174.54 6.70667 174.527 6.17333 174.42 5.72C174.527 5.93333 174.62 6.18667 174.7 6.48C174.807 5.81333 174.967 5.24 175.18 4.76C175.02 5.34666 174.967 6.04 175.02 6.84C175.073 7.64 175.26 8.29333 175.58 8.8C175.473 8.18667 175.513 7.48 175.7 6.68C175.913 5.85333 176.193 5.18666 176.54 4.68C176.487 5.29333 176.54 6.01333 176.7 6.84C176.887 7.64 177.153 8.29333 177.5 8.8C177.873 8.21333 178.153 7.48 178.34 6.6C178.527 5.72 178.54 4.94667 178.38 4.28C178.753 4.86667 179.033 5.61333 179.22 6.52C179.433 7.4 179.447 8.16 179.26 8.8C179.58 8.32 179.78 7.70667 179.86 6.96C179.94 6.21333 179.9 5.56 179.74 5C179.98 5.34667 180.153 5.78667 180.26 6.32C180.367 6.82666 180.407 7.32 180.38 7.8C180.54 7.24 180.78 6.68 181.1 6.12C181.42 5.53333 181.78 5.05333 182.18 4.68C181.727 5.18666 181.38 5.88 181.14 6.76C180.9 7.64 180.847 8.41333 180.98 9.08C181.513 9.37333 182.167 9.57333 182.94 9.68C183.713 9.78666 184.38 9.74667 184.94 9.56C184.407 9.88 183.713 10.08 182.86 10.16C183.047 10.24 183.22 10.32 183.38 10.4C183.033 10.32 182.62 10.32 182.14 10.4C181.66 10.48 181.273 10.6133 180.98 10.8C181.327 11.1467 181.78 11.44 182.34 11.68C182.927 11.8933 183.527 12.0533 184.14 12.16C184.753 12.24 185.287 12.24 185.74 12.16C184.887 12.7733 183.82 13.1867 182.54 13.4C183.26 13.4267 184.007 13.4933 184.78 13.6C185.58 13.7067 186.1 13.8267 186.34 13.96C186.153 13.9067 185.807 13.88 185.3 13.88C184.793 13.88 184.233 13.9067 183.62 13.96C183.033 13.9867 182.487 14.0533 181.98 14.16C181.473 14.24 181.14 14.3333 180.98 14.44C181.113 14.8667 181.38 15.3067 181.78 15.76C182.207 16.2133 182.62 16.5467 183.02 16.76C182.567 16.8133 182.033 16.7467 181.42 16.56C180.833 16.3733 180.38 16.12 180.06 15.8C180.3 16.4133 180.353 17.1467 180.22 18C180.113 18.8533 179.9 19.56 179.58 20.12C179.767 19.5067 179.82 18.7733 179.74 17.92C179.66 17.0667 179.447 16.36 179.1 15.8C179.207 16.2533 179.207 16.7733 179.1 17.36C178.993 17.9467 178.82 18.52 178.58 19.08C178.34 19.6133 178.073 20.0533 177.78 20.4C177.807 19.9467 177.78 19.4267 177.7 18.84C177.62 18.2267 177.46 17.6533 177.22 17.12C177.007 16.56 176.74 16.12 176.42 15.8C176.473 16.3333 176.42 16.9467 176.26 17.64C176.473 17.72 176.673 17.7867 176.86 17.84C176.647 17.9467 176.407 18.0267 176.14 18.08C175.953 18.8 175.7 19.3733 175.38 19.8C176.313 20.0667 177.033 20.4267 177.54 20.88C176.9 20.8 176.14 20.88 175.26 21.12C174.38 21.36 173.713 21.7067 173.26 22.16C173.873 21.9467 174.62 21.92 175.5 22.08C176.407 22.2133 177.14 22.4533 177.7 22.8C177.087 22.5867 176.34 22.56 175.46 22.72C174.58 22.88 173.847 23.12 173.26 23.44C173.767 23.7867 174.42 24.0267 175.22 24.16C176.02 24.2667 176.7 24.2133 177.26 24C176.753 24.32 176.1 24.5467 175.3 24.68C174.5 24.8133 173.82 24.7733 173.26 24.56C173.633 24.8533 174.127 25.04 174.74 25.12C175.353 25.1733 175.887 25.1467 176.34 25.04C176.047 25.2533 175.673 25.4133 175.22 25.52C174.767 25.6 174.327 25.6267 173.9 25.6C174.3 25.7333 174.713 25.9333 175.14 26.2C175.567 26.4667 175.9 26.72 176.14 26.96C175.713 26.96 175.193 27.12 174.58 27.44C173.967 27.7333 173.527 28.0533 173.26 28.4C173.82 28.3467 174.487 28.48 175.26 28.8C176.033 29.12 176.607 29.4933 176.98 29.92C176.42 29.92 175.753 30.08 174.98 30.4C174.233 30.6933 173.66 31.0267 173.26 31.4C173.553 31.6667 173.967 31.88 174.5 32.04C175.033 32.1733 175.5 32.2 175.9 32.12C175.58 32.36 175.153 32.56 174.62 32.72C174.113 32.88 173.673 32.92 173.3 32.84C173.993 32.92 174.767 33.1867 175.62 33.64C176.473 34.0667 177.087 34.5733 177.46 35.16C176.82 34.8933 176.007 34.76 175.02 34.76C174.06 34.7333 173.273 34.88 172.66 35.2C172.74 35.52 172.767 36.1067 172.74 36.96C172.713 37.8133 172.647 38.7467 172.54 39.76C172.46 40.7733 172.353 41.6933 172.22 42.52C172.087 43.3733 171.94 43.9467 171.78 44.24C171.86 43.92 171.9 43.32 171.9 42.44C171.9 41.5867 171.847 40.6533 171.74 39.64C171.66 38.6267 171.54 37.6933 171.38 36.84C171.247 36.0133 171.087 35.4667 170.9 35.2C170.5 35.5733 170.127 36.1333 169.78 36.88C169.46 37.6533 169.327 38.3067 169.38 38.84C169.007 38.44 168.66 37.8667 168.34 37.12C168.02 36.3733 167.86 35.7333 167.86 35.2C167.487 35.7067 167.18 36.3867 166.94 37.24C166.727 38.12 166.713 38.8667 166.9 39.48C166.607 39.08 166.367 38.56 166.18 37.92C166.153 38.6133 166.113 39.32 166.06 40.04C166.007 40.7867 165.927 41.44 165.82 42C165.713 42.5867 165.593 42.9867 165.46 43.2C165.567 42.9333 165.62 42.4 165.62 41.6C165.647 40.8267 165.62 39.92 165.54 38.88C165.46 37.8667 165.34 36.8267 165.18 35.76C165.047 34.6933 164.887 33.72 164.7 32.84ZM173.9 15.8C173.9 15.8267 173.913 15.84 173.94 15.84L173.9 15.8ZM164.7 16.92C164.513 16.9733 164.3 17.0133 164.06 17.04C164.033 17.1467 164.007 17.2667 163.98 17.4C164.273 17.24 164.513 17.08 164.7 16.92ZM173.26 18.04C173.713 18.4667 174.327 18.7333 175.1 18.84C175.073 18.6267 175.033 18.4267 174.98 18.24C174.313 18.24 173.74 18.1733 173.26 18.04ZM174.1 19.56C174.447 19.5867 174.807 19.6533 175.18 19.76C175.18 19.6 175.167 19.4133 175.14 19.2C174.82 19.3867 174.473 19.5067 174.1 19.56ZM162.98 19.28C162.98 19.3067 162.967 19.3467 162.94 19.4C163.073 19.3733 163.22 19.36 163.38 19.36C163.247 19.3333 163.113 19.3067 162.98 19.28ZM197.213 35.56C196.92 35.9333 196.693 36.4267 196.533 37.04C196.4 37.68 196.36 38.2267 196.413 38.68C196.2 38.3867 196.04 37.9867 195.933 37.48C195.853 37 195.853 36.5467 195.933 36.12C195.773 36.5733 195.546 37.0267 195.253 37.48C194.986 37.96 194.693 38.32 194.373 38.56C194.48 38.08 194.466 37.48 194.333 36.76C194.2 36.0667 193.986 35.52 193.693 35.12C193.613 35.6533 193.373 36.2267 192.973 36.84C192.573 37.48 192.146 37.9467 191.693 38.24C191.96 37.76 192.08 37.1333 192.053 36.36C192.053 35.6133 191.92 35.0133 191.653 34.56C191.52 34.9867 191.253 35.4533 190.853 35.96C190.453 36.4667 190.053 36.8 189.653 36.96C189.893 36.5867 190.04 36.08 190.093 35.44C190.146 34.8 190.133 34.2667 190.053 33.84C189.52 33.92 188.973 34.2 188.413 34.68C187.853 35.16 187.426 35.6133 187.133 36.04C187.106 35.5333 187.186 34.92 187.373 34.2C187.56 33.48 187.826 32.9333 188.173 32.56C187.56 32.48 186.813 32.56 185.933 32.8C185.08 33.04 184.44 33.3867 184.013 33.84C184.093 33.2267 184.4 32.56 184.933 31.84C185.466 31.12 185.986 30.5867 186.493 30.24C186.12 30.16 185.68 30.16 185.173 30.24C184.666 30.32 184.253 30.48 183.933 30.72C184.173 30.4 184.52 30.12 184.973 29.88C185.426 29.6133 185.84 29.48 186.213 29.48C185.733 29.1333 185.08 28.9333 184.253 28.88C183.426 28.8267 182.72 28.8667 182.133 29C182.586 28.6 183.213 28.28 184.013 28.04C184.786 27.8 185.466 27.72 186.053 27.8C185.946 27.2933 185.946 26.6933 186.053 26C186.16 25.3067 186.373 24.7467 186.693 24.32C186.533 24.8267 186.52 25.4267 186.653 26.12C186.786 26.8133 187.013 27.3733 187.333 27.8C187.386 27.48 187.546 27.08 187.813 26.6C188.08 26.12 188.333 25.7867 188.573 25.6C188.626 25.92 188.786 26.32 189.053 26.8C189.32 27.28 189.586 27.6133 189.853 27.8C190.12 27.5067 190.306 27.08 190.413 26.52C190.52 25.96 190.546 25.4667 190.493 25.04C190.706 25.3333 190.88 25.72 191.013 26.2C191.146 26.6533 191.2 27.0667 191.173 27.44C191.306 26.8267 191.56 26.2267 191.933 25.64C191.8 25.2933 191.693 24.9467 191.613 24.6C191.56 24.2267 191.56 23.9067 191.613 23.64C191.24 23.8 190.84 24.08 190.413 24.48C190.013 24.8533 189.72 25.2267 189.533 25.6C189.426 25.2533 189.4 24.8267 189.453 24.32C189.533 23.7867 189.64 23.3467 189.773 23C189.586 23.3467 189.306 23.7067 188.933 24.08C188.56 24.4267 188.2 24.6533 187.853 24.76C188.173 24.4933 188.453 24.1067 188.693 23.6C188.96 23.0933 189.093 22.6267 189.093 22.2C188.906 22.6 188.586 22.9867 188.133 23.36C187.68 23.7333 187.24 23.9733 186.813 24.08C187.186 23.8667 187.533 23.52 187.853 23.04C188.2 22.56 188.413 22.1067 188.493 21.68C188.093 21.9733 187.546 22.2133 186.853 22.4C186.186 22.5867 185.613 22.64 185.133 22.56C185.56 22.2933 185.986 21.8933 186.413 21.36C186.866 20.8 187.133 20.28 187.213 19.8C186.813 20.0667 186.306 20.28 185.693 20.44C185.08 20.5733 184.533 20.6 184.053 20.52C184.533 20.52 185.053 20.3733 185.613 20.08C186.2 19.76 186.653 19.4133 186.973 19.04C186.6 19.0667 186.146 19 185.613 18.84C185.08 18.68 184.68 18.48 184.413 18.24C184.786 18.1867 185.2 18.0133 185.653 17.72C186.133 17.4267 186.466 17.12 186.653 16.8C186.12 16.9067 185.506 16.8533 184.813 16.64C184.12 16.4267 183.573 16.1467 183.173 15.8C183.68 15.9333 184.28 15.9733 184.973 15.92C185.693 15.84 186.293 15.6667 186.773 15.4C186.533 14.9467 186.133 14.4933 185.573 14.04C185.013 13.56 184.48 13.2533 183.973 13.12C184.426 12.88 185.026 12.7733 185.773 12.8C186.52 12.8267 187.093 12.9333 187.493 13.12C187.066 12.9333 186.613 12.64 186.133 12.24C185.68 11.84 185.373 11.4267 185.213 11C185.56 11.3467 186.013 11.6533 186.573 11.92C187.133 12.16 187.653 12.3067 188.133 12.36C187.84 12.04 187.586 11.5733 187.373 10.96C187.16 10.3467 187.066 9.84 187.093 9.44C187.36 9.76 187.8 10.0533 188.413 10.32C189.026 10.56 189.546 10.6533 189.973 10.6C189.68 10.2533 189.44 9.8 189.253 9.24C189.093 8.65333 188.986 8.06666 188.933 7.48C188.906 6.86666 188.946 6.33333 189.053 5.88C189.186 6.33333 189.426 6.8 189.773 7.28C190.146 7.76 190.56 8.18666 191.013 8.56C191.493 8.93333 191.946 9.2 192.373 9.36C192.613 8.69333 192.653 7.89333 192.493 6.96C192.36 6.02667 192.12 5.25333 191.773 4.64C192.226 4.93333 192.64 5.38666 193.013 6C193.386 6.61333 193.653 7.24 193.813 7.88C193.84 6.92 194.026 6.13333 194.373 5.52C194.453 6 194.64 6.54667 194.933 7.16C195.226 7.77333 195.573 8.22667 195.973 8.52C196.32 8.2 196.613 7.70666 196.853 7.04C197.093 6.34666 197.186 5.77333 197.133 5.32C197.48 5.64 197.786 6.12 198.053 6.76C198.346 7.37333 198.506 7.92 198.533 8.4C198.853 8.05333 199.146 7.56 199.413 6.92C199.68 6.28 199.8 5.72 199.773 5.24C200.066 5.61333 200.28 6.14666 200.413 6.84C200.573 7.53333 200.586 8.10667 200.453 8.56C200.826 8.32 201.186 7.93333 201.533 7.4C201.88 6.86667 202.093 6.37333 202.173 5.92C202.44 6.29333 202.6 6.8 202.653 7.44C202.733 8.08 202.733 8.62666 202.653 9.08C203.24 8.76 203.84 8.24 204.453 7.52C205.093 6.8 205.506 6.10667 205.693 5.44C205.88 5.86667 205.986 6.37333 206.013 6.96C206.04 7.54667 206 8.13333 205.893 8.72C205.786 9.30667 205.6 9.78667 205.333 10.16C205.946 9.92 206.586 9.52 207.253 8.96C207.946 8.37333 208.453 7.8 208.773 7.24C208.853 7.88 208.746 8.64 208.453 9.52C208.186 10.3733 207.826 11.0267 207.373 11.48C207.933 11.5333 208.6 11.44 209.373 11.2C210.173 10.96 210.8 10.6667 211.253 10.32C211.253 10.6933 211.146 11.12 210.933 11.6C210.746 12.08 210.506 12.5333 210.213 12.96C209.92 13.36 209.613 13.6667 209.293 13.88C209.8 13.6133 210.44 13.5067 211.213 13.56C212.013 13.6133 212.666 13.7867 213.173 14.08C212.613 14.1067 211.986 14.32 211.293 14.72C210.626 15.12 210.12 15.5333 209.773 15.96C209.72 16.2533 209.52 16.6267 209.173 17.08C208.826 17.5067 208.52 17.7733 208.253 17.88C208.173 17.6133 207.96 17.2533 207.613 16.8C207.293 16.3467 207 16.0667 206.733 15.96C206.36 16.2533 206.053 16.7333 205.813 17.4C205.573 18.04 205.453 18.6 205.453 19.08C205.266 18.8933 205.08 18.64 204.893 18.32C205.026 18.6133 205.12 18.92 205.173 19.24C205.226 19.5333 205.24 19.7733 205.213 19.96C205.586 19.8267 205.986 19.5333 206.413 19.08C206.84 18.6267 207.12 18.2133 207.253 17.84C207.44 18.2133 207.533 18.7067 207.533 19.32C207.56 19.9333 207.48 20.4267 207.293 20.8C207.853 20.64 208.44 20.3067 209.053 19.8C209.693 19.2667 210.133 18.7467 210.373 18.24C210.4 18.8 210.28 19.4667 210.013 20.24C209.746 21.0133 209.413 21.6 209.013 22C209.386 21.5733 209.933 21.2 210.653 20.88C211.373 20.5333 212.013 20.36 212.573 20.36C212.066 20.6267 211.56 21.0667 211.053 21.68C210.546 22.2667 210.213 22.84 210.053 23.4C210.613 23.08 211.333 22.9067 212.213 22.88C213.093 22.8267 213.853 22.88 214.493 23.04C213.853 23.12 213.133 23.3867 212.333 23.84C211.56 24.2933 211.013 24.8 210.693 25.36C211.146 25.3867 211.68 25.5333 212.293 25.8C212.933 26.0667 213.386 26.3867 213.653 26.76C213.226 26.76 212.693 26.9067 212.053 27.2C211.413 27.4933 210.96 27.8267 210.693 28.2C211.066 28.7333 211.626 29.24 212.373 29.72C213.12 30.2 213.813 30.5067 214.453 30.64C213.866 30.88 213.12 30.9733 212.213 30.92C211.306 30.84 210.573 30.64 210.013 30.32C210.066 30.7733 210.28 31.28 210.653 31.84C211.026 32.4 211.386 32.8267 211.733 33.12C211.28 33.2 210.733 33.1467 210.093 32.96C209.453 32.7467 208.946 32.5067 208.573 32.24C208.626 32.8533 208.88 33.5067 209.333 34.2C209.813 34.8667 210.32 35.3733 210.853 35.72C210.266 35.5067 209.653 35.1333 209.013 34.6C208.4 34.0667 207.973 33.52 207.733 32.96C207.733 33.6 207.933 34.2933 208.333 35.04C208.733 35.7867 209.173 36.3733 209.653 36.8C209.066 36.5333 208.48 36.0933 207.893 35.48C207.306 34.84 206.946 34.2133 206.813 33.6C206.573 34.0267 206.453 34.6267 206.453 35.4C206.48 36.1733 206.586 36.8 206.773 37.28C206.293 37.0933 205.76 36.7467 205.173 36.24C204.613 35.7333 204.226 35.2533 204.013 34.8C204.28 35.36 204.48 36.04 204.613 36.84C204.746 37.6667 204.693 38.3733 204.453 38.96C204.506 38.3467 204.346 37.6667 203.973 36.92C203.6 36.1733 203.2 35.5733 202.773 35.12C202.453 35.44 202.2 35.92 202.013 36.56C201.826 37.2267 201.746 37.7867 201.773 38.24C201.373 38.0267 200.973 37.6267 200.573 37.04C200.2 36.48 199.986 35.9867 199.933 35.56C199.533 36.12 199.266 36.8667 199.133 37.8C199.026 38.7333 199.08 39.5333 199.293 40.2C198.92 39.6133 198.573 38.8667 198.253 37.96C197.96 37.0533 197.613 36.2533 197.213 35.56ZM198.973 16.04C198.92 16.0667 198.853 16.0933 198.773 16.12C198.96 16.52 199.106 17 199.213 17.56C199.32 18.0933 199.32 18.5333 199.213 18.88C199.426 18.64 199.613 18.3333 199.773 17.96C199.693 18.0933 199.613 18.2267 199.533 18.36C199.32 17.9333 199.213 17.36 199.213 16.64C199.24 15.8933 199.346 15.3067 199.533 14.88C199.213 15.04 198.92 15.3733 198.653 15.88H198.693C198.8 15.9333 198.893 15.9867 198.973 16.04ZM201.813 16.16C201.68 16.6133 201.68 17.16 201.813 17.8C201.946 18.44 202.146 18.9467 202.413 19.32C202.733 19.2133 203.106 18.9467 203.533 18.52C203.96 18.0933 204.226 17.72 204.333 17.4C204.413 17.4533 204.493 17.5467 204.573 17.68C204.333 17.12 204.2 16.6133 204.173 16.16C204.12 16.8 203.933 17.3333 203.613 17.76C203.64 17.4933 203.6 17.1867 203.493 16.84C203.386 16.4667 203.24 16.1733 203.053 15.96C202.813 16.28 202.64 16.7067 202.533 17.24C202.453 17.7733 202.466 18.2267 202.573 18.6C202.386 18.2533 202.226 17.8267 202.093 17.32C201.986 16.7867 201.986 16.3333 202.093 15.96C201.826 16.0667 201.546 16.2267 201.253 16.44C200.96 16.6533 200.68 16.9067 200.413 17.2C200.466 17.5467 200.48 17.92 200.453 18.32C200.586 17.92 200.773 17.52 201.013 17.12C201.28 16.72 201.546 16.4 201.813 16.16ZM197.773 16.64C197.746 16.72 197.733 16.7867 197.733 16.84C197.84 16.7067 197.946 16.5867 198.053 16.48C197.946 16.5333 197.853 16.5867 197.773 16.64ZM196.253 18C196.626 17.8667 197.053 17.56 197.533 17.08C197.506 17 197.466 16.9333 197.413 16.88C196.88 17.2533 196.493 17.6267 196.253 18ZM195.253 26.64C195.36 26.88 195.426 27.2133 195.453 27.64C195.48 28.04 195.44 28.3733 195.333 28.64C195.626 28.5067 195.92 28.2667 196.213 27.92C196.533 27.5733 196.746 27.24 196.853 26.92C196.96 27.32 196.986 27.7733 196.933 28.28C197.04 28.0133 197.186 27.76 197.373 27.52C197.56 27.28 197.746 27.1067 197.933 27C197.88 27.24 197.893 27.5333 197.973 27.88C198.08 27.56 198.12 27.16 198.093 26.68C197.826 26.6267 197.586 26.5733 197.373 26.52C197.586 26.4667 197.813 26.4133 198.053 26.36C198 25.8267 197.893 25.3733 197.733 25C197.626 25.4267 197.36 25.92 196.933 26.48C196.506 27.04 196.093 27.4133 195.693 27.6C195.72 27.1733 195.6 26.6267 195.333 25.96C195.093 25.2933 194.826 24.8133 194.533 24.52C194.266 24.6267 193.933 24.84 193.533 25.16C193.16 25.4533 192.853 25.76 192.613 26.08C192.746 26.4 192.906 26.72 193.093 27.04C193.28 27.36 193.466 27.6133 193.653 27.8C193.92 27.7733 194.226 27.64 194.573 27.4C194.92 27.1333 195.146 26.88 195.253 26.64ZM200.853 25.76C200.666 25.8933 200.493 26.0533 200.333 26.24C200.386 26.24 200.44 26.2533 200.493 26.28C200.6 26.0667 200.72 25.8933 200.853 25.76ZM198.693 29.4C198.533 28.7333 198.586 28.0267 198.853 27.28C198.853 27.2 198.853 27.0933 198.853 26.96C198.8 26.9333 198.733 26.9067 198.653 26.88C198.44 27.36 198.213 27.7067 197.973 27.92C198.133 28.5867 198.373 29.08 198.693 29.4ZM200.013 27.88C200.013 27.7733 200.026 27.68 200.053 27.6C199.893 27.4933 199.733 27.4 199.573 27.32C199.466 27.5067 199.373 27.6933 199.293 27.88C199.506 28.4933 199.786 28.9467 200.133 29.24C200.24 28.8133 200.253 28.2933 200.173 27.68C200.12 27.7333 200.066 27.8 200.013 27.88Z" fill="#C90D0D"/>
</svg>
